<svg width="512" height="512" viewBox="0 0 512 512" fill="none" xmlns="http://www.w3.org/2000/svg">
<g clip-path="url(#clip0)">
<mask id="mask0" mask-type="alpha" maskUnits="userSpaceOnUse" x="43" y="41" width="430" height="432">
<path fill-rule="evenodd" clip-rule="evenodd" d="M452.319 379.987C479.009 338.484 474.492 287.277 465.655 239.89C457.543 196.392 435.663 160.255 405.505 128.956C367.899 89.9267 330.07 34.1734 275.38 42.4164C220.608 50.6717 204.646 122.261 167.409 164.842C124.158 214.299 44.9735 243.287 43.1079 308.02C41.1887 374.611 101.915 424.639 159.036 455.348C208.908 482.158 268.336 473.762 324.543 459.319C374.458 446.493 423.975 424.062 452.319 379.987Z" fill="#C4C4C4"/>
</mask>
<g mask="url(#mask0)">
<rect width="512" height="512" fill="#FBFBFF"/>
<g filter="url(#filter0_d)">
<rect x="158" y="43.9734" width="113" height="444" transform="rotate(-29.6921 158 43.9734)" fill="#4D435C"/>
</g>
<g filter="url(#filter1_d)">
<rect x="110" y="61.4323" width="25" height="444" transform="rotate(-29.6921 110 61.4323)" fill="#4D435C"/>
</g>
<g filter="url(#filter2_d)">
<rect y="344" width="512" height="168" fill="#90726B"/>
</g>
<g filter="url(#filter3_d)">
<path d="M377.555 111.633C353.805 97.1333 302.005 76.8333 284.805 111.633C263.305 155.133 385.305 218.883 377.555 255.133C369.805 291.383 322.554 299.883 278.304 272.633C234.054 245.383 215.304 253.883 204.304 297.383" stroke="#5A82B0" stroke-width="9" stroke-linecap="round" stroke-dasharray="25 25"/>
</g>
<g filter="url(#filter4_d)">
<path fill-rule="evenodd" clip-rule="evenodd" d="M384.5 363C390.575 363 395.5 358.075 395.5 352C395.5 345.925 390.575 341 384.5 341C378.425 341 373.5 345.925 373.5 352C373.5 358.075 378.425 363 384.5 363ZM384.5 359C388.366 359 391.5 355.866 391.5 352C391.5 348.134 388.366 345 384.5 345C380.634 345 377.5 348.134 377.5 352C377.5 355.866 380.634 359 384.5 359Z" fill="#A3C38A"/>
</g>
<g filter="url(#filter5_d)">
<rect x="344" y="329" width="40.5" height="47" rx="4" fill="#A3C48A"/>
</g>
<g filter="url(#filter6_d)">
<path d="M358.038 307.203C355.938 316.329 360.489 321.204 363.027 322.5C363.027 303.573 374.579 311.092 381.405 303.314C388.231 295.535 370.903 278.942 371.428 289.313C371.953 299.684 360.664 295.795 358.038 307.203Z" fill="white"/>
</g>
<g filter="url(#filter7_d)">
<rect x="295.289" y="210.013" width="64.671" height="35.7928" rx="1" transform="rotate(-45 295.289 210.013)" fill="#F3F3F3"/>
</g>
<g filter="url(#filter8_d)">
<path d="M329.53 197.936C329.428 198.208 329.214 198.423 328.941 198.525L298.633 209.8C297.627 210.175 296.818 208.915 297.578 208.156L339.161 166.573C339.92 165.813 341.18 166.622 340.805 167.628L329.53 197.936Z" fill="#F3F3F3"/>
</g>
<g filter="url(#filter9_d)">
<rect x="243.701" y="268.064" width="45.7228" height="25.3057" rx="1" transform="rotate(-45 243.701 268.064)" fill="#F3F3F3"/>
</g>
<g filter="url(#filter10_d)">
<path d="M267.957 259.399C267.855 259.672 267.64 259.887 267.368 259.988L247.326 267.444C246.319 267.819 245.51 266.559 246.27 265.8L273.769 238.301C274.528 237.542 275.787 238.351 275.413 239.357L267.957 259.399Z" fill="#F3F3F3"/>
</g>
<g filter="url(#filter11_d)">
<rect x="363.669" y="136.851" width="79.5" height="44" rx="1" transform="rotate(-45 363.669 136.851)" fill="#F3F3F3"/>
</g>
<g filter="url(#filter12_d)">
<path d="M405.725 122.103C405.624 122.376 405.409 122.591 405.137 122.692L366.795 136.956C365.788 137.331 364.98 136.071 365.739 135.312L418.345 82.7061C419.105 81.9466 420.364 82.7553 419.989 83.7619L405.725 122.103Z" fill="#F3F3F3"/>
</g>
<g filter="url(#filter13_d)">
<rect x="163.234" y="286" width="183.491" height="120.953" rx="13" fill="#F3F3F3"/>
</g>
<g filter="url(#filter14_d)">
<rect x="166.671" y="296.308" width="176.618" height="103.085" rx="13" fill="#3E1B55"/>
<rect x="166.671" y="296.308" width="176.618" height="103.085" rx="13" fill="url(#paint0_radial)"/>
<rect x="166.671" y="296.308" width="176.618" height="103.085" rx="13" fill="url(#paint1_linear)" fill-opacity="0.4"/>
</g>
<path fill-rule="evenodd" clip-rule="evenodd" d="M243.599 357.046C243.619 357.436 243.412 357.802 243.068 357.986L207.254 377.028C206.274 377.549 205.058 377.177 204.537 376.197L195.962 360.07C195.441 359.09 195.813 357.874 196.793 357.353L240.954 333.872C241.602 333.527 242.39 333.972 242.428 334.706L243.599 357.046Z" fill="#FBFBFF"/>
<path fill-rule="evenodd" clip-rule="evenodd" d="M216.79 346.72L243.399 357.585L243.449 357.628C243.409 357.694 243.361 357.755 243.306 357.81L214.946 347.7L216.79 346.72Z" fill="black" fill-opacity="0.25"/>
<path fill-rule="evenodd" clip-rule="evenodd" d="M242.388 333.786C242.367 333.396 242.123 333.053 241.76 332.907L204.145 317.698C203.116 317.282 201.945 317.778 201.53 318.807L194.694 335.739C194.279 336.768 194.776 337.939 195.805 338.355L216.678 346.794L232.004 352.991L243.478 357.63C243.576 357.464 243.627 357.271 243.618 357.07L243.617 357.065L242.479 335.516L242.388 333.786Z" fill="#FBFBFF"/>
<path d="M265.376 342.058C265.376 341.226 266.051 340.552 266.883 340.552H316.201C317.033 340.552 317.708 341.226 317.708 342.058L317.708 356.489C317.708 357.321 317.033 357.995 316.201 357.995H266.883C266.051 357.995 265.376 357.321 265.376 356.489L265.376 342.058Z" fill="#FBFBFF"/>
<circle cx="255.323" cy="290.811" r="3.43616" fill="black"/>
<g filter="url(#filter15_d)">
<ellipse cx="255.323" cy="290.811" rx="2.74892" ry="2.74892" fill="#323232"/>
</g>
<g filter="url(#filter16_d)">
<path d="M256.658 290.083L256.354 289.78C256.165 289.59 256.165 289.282 256.354 289.093C256.544 288.903 256.852 288.903 257.042 289.093L257.255 289.306C257.339 289.389 257.385 289.502 257.385 289.62V290.018C257.385 290.386 256.888 290.504 256.723 290.174C256.707 290.14 256.684 290.11 256.658 290.083Z" fill="#F7F7F7"/>
</g>
<g filter="url(#filter17_d)">
<ellipse rx="1.37446" ry="1.37447" transform="matrix(1 0 0 -1 262.196 290.811)" fill="#B31414"/>
</g>
<g filter="url(#filter18_d)">
<rect x="163" y="402.829" width="186.24" height="8.2468" rx="4.1234" fill="#F3F3F3"/>
</g>
<g filter="url(#filter19_d)">
<path d="M98 256C98 235.842 114.342 219.5 134.5 219.5H187.75C197.829 219.5 206 227.671 206 237.75C206 247.829 197.829 256 187.75 256H98Z" fill="#A92EE3"/>
</g>
<g filter="url(#filter20_d)">
<path d="M261 205C261 187.879 247.121 174 230 174H217.25C207.171 174 199 182.171 199 192.25C199 202.329 207.171 210.5 217.25 210.5H261V205Z" fill="#4F398F"/>
</g>
<g filter="url(#filter21_d)">
<path d="M261 165.5C261 145.342 244.658 129 224.5 129H194.25C184.171 129 176 137.171 176 147.25C176 157.329 184.171 165.5 194.25 165.5H261Z" fill="#392878"/>
</g>
<g filter="url(#filter22_d)">
<rect x="80.1381" y="317.5" width="52.4113" height="76.5" rx="4" transform="rotate(21.5811 80.1381 317.5)" fill="#B1ADB7"/>
</g>
<g filter="url(#filter23_d)">
<rect x="78.9453" y="321.239" width="50.554" height="70.9716" rx="4" transform="rotate(21.5811 78.9453 321.239)" fill="url(#paint2_linear)"/>
</g>
<g filter="url(#filter24_d)">
<circle cx="81.5" cy="319.5" r="10.5" fill="#D83A30"/>
</g>
<g filter="url(#filter25_d)">
<circle cx="83" cy="327" r="3.5" fill="white"/>
</g>
<g filter="url(#filter26_d)">
<path d="M78.5 302H87.5L84.8529 321.5H81.1471L78.5 302Z" fill="white"/>
</g>
<g filter="url(#filter27_i)">
<path fill-rule="evenodd" clip-rule="evenodd" d="M452.319 379.987C479.009 338.484 474.492 287.277 465.655 239.89C457.543 196.392 435.663 160.255 405.505 128.956C367.899 89.9267 330.07 34.1733 275.38 42.4163C220.608 50.6716 204.646 122.261 167.409 164.842C124.158 214.299 44.9735 243.287 43.1079 308.02C41.1887 374.611 101.915 424.639 159.036 455.348C208.908 482.158 268.336 473.762 324.543 459.319C374.458 446.493 423.975 424.062 452.319 379.987Z" fill="white" fill-opacity="0.01"/>
</g>
</g>
</g>
<defs>
<filter id="filter0_d" x="154" y="-12" width="326.094" height="449.676" filterUnits="userSpaceOnUse" color-interpolation-filters="sRGB">
<feFlood flood-opacity="0" result="BackgroundImageFix"/>
<feColorMatrix in="SourceAlpha" type="matrix" values="0 0 0 0 0 0 0 0 0 0 0 0 0 0 0 0 0 0 127 0"/>
<feOffset dy="4"/>
<feGaussianBlur stdDeviation="2"/>
<feColorMatrix type="matrix" values="0 0 0 0 0 0 0 0 0 0 0 0 0 0 0 0 0 0 0.25 0"/>
<feBlend mode="normal" in2="BackgroundImageFix" result="effect1_dropShadow"/>
<feBlend mode="normal" in="SourceGraphic" in2="effect1_dropShadow" result="shape"/>
</filter>
<filter id="filter1_d" x="106" y="49.0487" width="249.648" height="406.086" filterUnits="userSpaceOnUse" color-interpolation-filters="sRGB">
<feFlood flood-opacity="0" result="BackgroundImageFix"/>
<feColorMatrix in="SourceAlpha" type="matrix" values="0 0 0 0 0 0 0 0 0 0 0 0 0 0 0 0 0 0 127 0"/>
<feOffset dy="4"/>
<feGaussianBlur stdDeviation="2"/>
<feColorMatrix type="matrix" values="0 0 0 0 0 0 0 0 0 0 0 0 0 0 0 0 0 0 0.25 0"/>
<feBlend mode="normal" in2="BackgroundImageFix" result="effect1_dropShadow"/>
<feBlend mode="normal" in="SourceGraphic" in2="effect1_dropShadow" result="shape"/>
</filter>
<filter id="filter2_d" x="-4" y="344" width="520" height="176" filterUnits="userSpaceOnUse" color-interpolation-filters="sRGB">
<feFlood flood-opacity="0" result="BackgroundImageFix"/>
<feColorMatrix in="SourceAlpha" type="matrix" values="0 0 0 0 0 0 0 0 0 0 0 0 0 0 0 0 0 0 127 0"/>
<feOffset dy="4"/>
<feGaussianBlur stdDeviation="2"/>
<feColorMatrix type="matrix" values="0 0 0 0 0 0 0 0 0 0 0 0 0 0 0 0 0 0 0.25 0"/>
<feBlend mode="normal" in2="BackgroundImageFix" result="effect1_dropShadow"/>
<feBlend mode="normal" in="SourceGraphic" in2="effect1_dropShadow" result="shape"/>
</filter>
<filter id="filter3_d" x="195.803" y="87.9185" width="190.606" height="221.966" filterUnits="userSpaceOnUse" color-interpolation-filters="sRGB">
<feFlood flood-opacity="0" result="BackgroundImageFix"/>
<feColorMatrix in="SourceAlpha" type="matrix" values="0 0 0 0 0 0 0 0 0 0 0 0 0 0 0 0 0 0 127 0"/>
<feOffset dy="4"/>
<feGaussianBlur stdDeviation="2"/>
<feColorMatrix type="matrix" values="0 0 0 0 0 0 0 0 0 0 0 0 0 0 0 0 0 0 0.25 0"/>
<feBlend mode="normal" in2="BackgroundImageFix" result="effect1_dropShadow"/>
<feBlend mode="normal" in="SourceGraphic" in2="effect1_dropShadow" result="shape"/>
</filter>
<filter id="filter4_d" x="369.5" y="341" width="30" height="30" filterUnits="userSpaceOnUse" color-interpolation-filters="sRGB">
<feFlood flood-opacity="0" result="BackgroundImageFix"/>
<feColorMatrix in="SourceAlpha" type="matrix" values="0 0 0 0 0 0 0 0 0 0 0 0 0 0 0 0 0 0 127 0"/>
<feOffset dy="4"/>
<feGaussianBlur stdDeviation="2"/>
<feColorMatrix type="matrix" values="0 0 0 0 0 0 0 0 0 0 0 0 0 0 0 0 0 0 0.25 0"/>
<feBlend mode="normal" in2="BackgroundImageFix" result="effect1_dropShadow"/>
<feBlend mode="normal" in="SourceGraphic" in2="effect1_dropShadow" result="shape"/>
</filter>
<filter id="filter5_d" x="340" y="329" width="48.5" height="55" filterUnits="userSpaceOnUse" color-interpolation-filters="sRGB">
<feFlood flood-opacity="0" result="BackgroundImageFix"/>
<feColorMatrix in="SourceAlpha" type="matrix" values="0 0 0 0 0 0 0 0 0 0 0 0 0 0 0 0 0 0 127 0"/>
<feOffset dy="4"/>
<feGaussianBlur stdDeviation="2"/>
<feColorMatrix type="matrix" values="0 0 0 0 0 0 0 0 0 0 0 0 0 0 0 0 0 0 0.25 0"/>
<feBlend mode="normal" in2="BackgroundImageFix" result="effect1_dropShadow"/>
<feBlend mode="normal" in="SourceGraphic" in2="effect1_dropShadow" result="shape"/>
</filter>
<filter id="filter6_d" x="353.5" y="286" width="33.5" height="44.5" filterUnits="userSpaceOnUse" color-interpolation-filters="sRGB">
<feFlood flood-opacity="0" result="BackgroundImageFix"/>
<feColorMatrix in="SourceAlpha" type="matrix" values="0 0 0 0 0 0 0 0 0 0 0 0 0 0 0 0 0 0 127 0"/>
<feOffset dy="4"/>
<feGaussianBlur stdDeviation="2"/>
<feColorMatrix type="matrix" values="0 0 0 0 0 0 0 0 0 0 0 0 0 0 0 0 0 0 0.25 0"/>
<feBlend mode="normal" in2="BackgroundImageFix" result="effect1_dropShadow"/>
<feBlend mode="normal" in="SourceGraphic" in2="effect1_dropShadow" result="shape"/>
</filter>
<filter id="filter7_d" x="291.703" y="164.698" width="78.2102" height="78.2102" filterUnits="userSpaceOnUse" color-interpolation-filters="sRGB">
<feFlood flood-opacity="0" result="BackgroundImageFix"/>
<feColorMatrix in="SourceAlpha" type="matrix" values="0 0 0 0 0 0 0 0 0 0 0 0 0 0 0 0 0 0 127 0"/>
<feOffset dy="4"/>
<feGaussianBlur stdDeviation="2"/>
<feColorMatrix type="matrix" values="0 0 0 0 0 0 0 0 0 0 0 0 0 0 0 0 0 0 0.25 0"/>
<feBlend mode="normal" in2="BackgroundImageFix" result="effect1_dropShadow"/>
<feBlend mode="normal" in="SourceGraphic" in2="effect1_dropShadow" result="shape"/>
</filter>
<filter id="filter8_d" x="293.278" y="166.273" width="51.5948" height="51.5948" filterUnits="userSpaceOnUse" color-interpolation-filters="sRGB">
<feFlood flood-opacity="0" result="BackgroundImageFix"/>
<feColorMatrix in="SourceAlpha" type="matrix" values="0 0 0 0 0 0 0 0 0 0 0 0 0 0 0 0 0 0 127 0"/>
<feOffset dy="4"/>
<feGaussianBlur stdDeviation="2"/>
<feColorMatrix type="matrix" values="0 0 0 0 0 0 0 0 0 0 0 0 0 0 0 0 0 0 0.25 0"/>
<feBlend mode="normal" in2="BackgroundImageFix" result="effect1_dropShadow"/>
<feBlend mode="normal" in="SourceGraphic" in2="effect1_dropShadow" result="shape"/>
</filter>
<filter id="filter9_d" x="240.115" y="236.147" width="57.3963" height="57.3963" filterUnits="userSpaceOnUse" color-interpolation-filters="sRGB">
<feFlood flood-opacity="0" result="BackgroundImageFix"/>
<feColorMatrix in="SourceAlpha" type="matrix" values="0 0 0 0 0 0 0 0 0 0 0 0 0 0 0 0 0 0 127 0"/>
<feOffset dy="4"/>
<feGaussianBlur stdDeviation="2"/>
<feColorMatrix type="matrix" values="0 0 0 0 0 0 0 0 0 0 0 0 0 0 0 0 0 0 0.25 0"/>
<feBlend mode="normal" in2="BackgroundImageFix" result="effect1_dropShadow"/>
<feBlend mode="normal" in="SourceGraphic" in2="effect1_dropShadow" result="shape"/>
</filter>
<filter id="filter10_d" x="241.971" y="238.002" width="37.5103" height="37.5103" filterUnits="userSpaceOnUse" color-interpolation-filters="sRGB">
<feFlood flood-opacity="0" result="BackgroundImageFix"/>
<feColorMatrix in="SourceAlpha" type="matrix" values="0 0 0 0 0 0 0 0 0 0 0 0 0 0 0 0 0 0 127 0"/>
<feOffset dy="4"/>
<feGaussianBlur stdDeviation="2"/>
<feColorMatrix type="matrix" values="0 0 0 0 0 0 0 0 0 0 0 0 0 0 0 0 0 0 0.25 0"/>
<feBlend mode="normal" in2="BackgroundImageFix" result="effect1_dropShadow"/>
<feBlend mode="normal" in="SourceGraphic" in2="effect1_dropShadow" result="shape"/>
</filter>
<filter id="filter11_d" x="360.084" y="81.0505" width="94.4992" height="94.4993" filterUnits="userSpaceOnUse" color-interpolation-filters="sRGB">
<feFlood flood-opacity="0" result="BackgroundImageFix"/>
<feColorMatrix in="SourceAlpha" type="matrix" values="0 0 0 0 0 0 0 0 0 0 0 0 0 0 0 0 0 0 127 0"/>
<feOffset dy="4"/>
<feGaussianBlur stdDeviation="2"/>
<feColorMatrix type="matrix" values="0 0 0 0 0 0 0 0 0 0 0 0 0 0 0 0 0 0 0.25 0"/>
<feBlend mode="normal" in2="BackgroundImageFix" result="effect1_dropShadow"/>
<feBlend mode="normal" in="SourceGraphic" in2="effect1_dropShadow" result="shape"/>
</filter>
<filter id="filter12_d" x="361.44" y="82.4069" width="62.6176" height="62.6175" filterUnits="userSpaceOnUse" color-interpolation-filters="sRGB">
<feFlood flood-opacity="0" result="BackgroundImageFix"/>
<feColorMatrix in="SourceAlpha" type="matrix" values="0 0 0 0 0 0 0 0 0 0 0 0 0 0 0 0 0 0 127 0"/>
<feOffset dy="4"/>
<feGaussianBlur stdDeviation="2"/>
<feColorMatrix type="matrix" values="0 0 0 0 0 0 0 0 0 0 0 0 0 0 0 0 0 0 0.25 0"/>
<feBlend mode="normal" in2="BackgroundImageFix" result="effect1_dropShadow"/>
<feBlend mode="normal" in="SourceGraphic" in2="effect1_dropShadow" result="shape"/>
</filter>
<filter id="filter13_d" x="159.234" y="286" width="191.491" height="128.953" filterUnits="userSpaceOnUse" color-interpolation-filters="sRGB">
<feFlood flood-opacity="0" result="BackgroundImageFix"/>
<feColorMatrix in="SourceAlpha" type="matrix" values="0 0 0 0 0 0 0 0 0 0 0 0 0 0 0 0 0 0 127 0"/>
<feOffset dy="4"/>
<feGaussianBlur stdDeviation="2"/>
<feColorMatrix type="matrix" values="0 0 0 0 0 0 0 0 0 0 0 0 0 0 0 0 0 0 0.25 0"/>
<feBlend mode="normal" in2="BackgroundImageFix" result="effect1_dropShadow"/>
<feBlend mode="normal" in="SourceGraphic" in2="effect1_dropShadow" result="shape"/>
</filter>
<filter id="filter14_d" x="162.671" y="296.308" width="184.618" height="111.085" filterUnits="userSpaceOnUse" color-interpolation-filters="sRGB">
<feFlood flood-opacity="0" result="BackgroundImageFix"/>
<feColorMatrix in="SourceAlpha" type="matrix" values="0 0 0 0 0 0 0 0 0 0 0 0 0 0 0 0 0 0 127 0"/>
<feOffset dy="4"/>
<feGaussianBlur stdDeviation="2"/>
<feColorMatrix type="matrix" values="0 0 0 0 0 0 0 0 0 0 0 0 0 0 0 0 0 0 0.25 0"/>
<feBlend mode="normal" in2="BackgroundImageFix" result="effect1_dropShadow"/>
<feBlend mode="normal" in="SourceGraphic" in2="effect1_dropShadow" result="shape"/>
</filter>
<filter id="filter15_d" x="248.574" y="288.062" width="13.4978" height="13.4978" filterUnits="userSpaceOnUse" color-interpolation-filters="sRGB">
<feFlood flood-opacity="0" result="BackgroundImageFix"/>
<feColorMatrix in="SourceAlpha" type="matrix" values="0 0 0 0 0 0 0 0 0 0 0 0 0 0 0 0 0 0 127 0"/>
<feOffset dy="4"/>
<feGaussianBlur stdDeviation="2"/>
<feColorMatrix type="matrix" values="0 0 0 0 0 0 0 0 0 0 0 0 0 0 0 0 0 0 0.25 0"/>
<feBlend mode="normal" in2="BackgroundImageFix" result="effect1_dropShadow"/>
<feBlend mode="normal" in="SourceGraphic" in2="effect1_dropShadow" result="shape"/>
</filter>
<filter id="filter16_d" x="252.212" y="288.95" width="9.17319" height="9.41754" filterUnits="userSpaceOnUse" color-interpolation-filters="sRGB">
<feFlood flood-opacity="0" result="BackgroundImageFix"/>
<feColorMatrix in="SourceAlpha" type="matrix" values="0 0 0 0 0 0 0 0 0 0 0 0 0 0 0 0 0 0 127 0"/>
<feOffset dy="4"/>
<feGaussianBlur stdDeviation="2"/>
<feColorMatrix type="matrix" values="0 0 0 0 0 0 0 0 0 0 0 0 0 0 0 0 0 0 0.25 0"/>
<feBlend mode="normal" in2="BackgroundImageFix" result="effect1_dropShadow"/>
<feBlend mode="normal" in="SourceGraphic" in2="effect1_dropShadow" result="shape"/>
</filter>
<filter id="filter17_d" x="256.821" y="289.436" width="10.7489" height="10.7489" filterUnits="userSpaceOnUse" color-interpolation-filters="sRGB">
<feFlood flood-opacity="0" result="BackgroundImageFix"/>
<feColorMatrix in="SourceAlpha" type="matrix" values="0 0 0 0 0 0 0 0 0 0 0 0 0 0 0 0 0 0 127 0"/>
<feOffset dy="4"/>
<feGaussianBlur stdDeviation="2"/>
<feColorMatrix type="matrix" values="0 0 0 0 0 0 0 0 0 0 0 0 0 0 0 0 0 0 0.25 0"/>
<feBlend mode="normal" in2="BackgroundImageFix" result="effect1_dropShadow"/>
<feBlend mode="normal" in="SourceGraphic" in2="effect1_dropShadow" result="shape"/>
</filter>
<filter id="filter18_d" x="159" y="402.829" width="194.24" height="16.2468" filterUnits="userSpaceOnUse" color-interpolation-filters="sRGB">
<feFlood flood-opacity="0" result="BackgroundImageFix"/>
<feColorMatrix in="SourceAlpha" type="matrix" values="0 0 0 0 0 0 0 0 0 0 0 0 0 0 0 0 0 0 127 0"/>
<feOffset dy="4"/>
<feGaussianBlur stdDeviation="2"/>
<feColorMatrix type="matrix" values="0 0 0 0 0 0 0 0 0 0 0 0 0 0 0 0 0 0 0.25 0"/>
<feBlend mode="normal" in2="BackgroundImageFix" result="effect1_dropShadow"/>
<feBlend mode="normal" in="SourceGraphic" in2="effect1_dropShadow" result="shape"/>
</filter>
<filter id="filter19_d" x="94" y="219.5" width="116" height="44.5" filterUnits="userSpaceOnUse" color-interpolation-filters="sRGB">
<feFlood flood-opacity="0" result="BackgroundImageFix"/>
<feColorMatrix in="SourceAlpha" type="matrix" values="0 0 0 0 0 0 0 0 0 0 0 0 0 0 0 0 0 0 127 0"/>
<feOffset dy="4"/>
<feGaussianBlur stdDeviation="2"/>
<feColorMatrix type="matrix" values="0 0 0 0 0 0 0 0 0 0 0 0 0 0 0 0 0 0 0.25 0"/>
<feBlend mode="normal" in2="BackgroundImageFix" result="effect1_dropShadow"/>
<feBlend mode="normal" in="SourceGraphic" in2="effect1_dropShadow" result="shape"/>
</filter>
<filter id="filter20_d" x="195" y="174" width="70" height="44.5" filterUnits="userSpaceOnUse" color-interpolation-filters="sRGB">
<feFlood flood-opacity="0" result="BackgroundImageFix"/>
<feColorMatrix in="SourceAlpha" type="matrix" values="0 0 0 0 0 0 0 0 0 0 0 0 0 0 0 0 0 0 127 0"/>
<feOffset dy="4"/>
<feGaussianBlur stdDeviation="2"/>
<feColorMatrix type="matrix" values="0 0 0 0 0 0 0 0 0 0 0 0 0 0 0 0 0 0 0.25 0"/>
<feBlend mode="normal" in2="BackgroundImageFix" result="effect1_dropShadow"/>
<feBlend mode="normal" in="SourceGraphic" in2="effect1_dropShadow" result="shape"/>
</filter>
<filter id="filter21_d" x="172" y="129" width="93" height="44.5" filterUnits="userSpaceOnUse" color-interpolation-filters="sRGB">
<feFlood flood-opacity="0" result="BackgroundImageFix"/>
<feColorMatrix in="SourceAlpha" type="matrix" values="0 0 0 0 0 0 0 0 0 0 0 0 0 0 0 0 0 0 127 0"/>
<feOffset dy="4"/>
<feGaussianBlur stdDeviation="2"/>
<feColorMatrix type="matrix" values="0 0 0 0 0 0 0 0 0 0 0 0 0 0 0 0 0 0 0.25 0"/>
<feBlend mode="normal" in2="BackgroundImageFix" result="effect1_dropShadow"/>
<feBlend mode="normal" in="SourceGraphic" in2="effect1_dropShadow" result="shape"/>
</filter>
<filter id="filter22_d" x="49.1898" y="318.69" width="82.4956" height="96.0354" filterUnits="userSpaceOnUse" color-interpolation-filters="sRGB">
<feFlood flood-opacity="0" result="BackgroundImageFix"/>
<feColorMatrix in="SourceAlpha" type="matrix" values="0 0 0 0 0 0 0 0 0 0 0 0 0 0 0 0 0 0 127 0"/>
<feOffset dy="4"/>
<feGaussianBlur stdDeviation="2"/>
<feColorMatrix type="matrix" values="0 0 0 0 0 0 0 0 0 0 0 0 0 0 0 0 0 0 0.25 0"/>
<feBlend mode="normal" in2="BackgroundImageFix" result="effect1_dropShadow"/>
<feBlend mode="normal" in="SourceGraphic" in2="effect1_dropShadow" result="shape"/>
</filter>
<filter id="filter23_d" x="50.0305" y="322.429" width="78.7351" height="90.2114" filterUnits="userSpaceOnUse" color-interpolation-filters="sRGB">
<feFlood flood-opacity="0" result="BackgroundImageFix"/>
<feColorMatrix in="SourceAlpha" type="matrix" values="0 0 0 0 0 0 0 0 0 0 0 0 0 0 0 0 0 0 127 0"/>
<feOffset dy="4"/>
<feGaussianBlur stdDeviation="2"/>
<feColorMatrix type="matrix" values="0 0 0 0 0 0 0 0 0 0 0 0 0 0 0 0 0 0 0.25 0"/>
<feBlend mode="normal" in2="BackgroundImageFix" result="effect1_dropShadow"/>
<feBlend mode="normal" in="SourceGraphic" in2="effect1_dropShadow" result="shape"/>
</filter>
<filter id="filter24_d" x="67" y="309" width="29" height="29" filterUnits="userSpaceOnUse" color-interpolation-filters="sRGB">
<feFlood flood-opacity="0" result="BackgroundImageFix"/>
<feColorMatrix in="SourceAlpha" type="matrix" values="0 0 0 0 0 0 0 0 0 0 0 0 0 0 0 0 0 0 127 0"/>
<feOffset dy="4"/>
<feGaussianBlur stdDeviation="2"/>
<feColorMatrix type="matrix" values="0 0 0 0 0 0 0 0 0 0 0 0 0 0 0 0 0 0 0.25 0"/>
<feBlend mode="normal" in2="BackgroundImageFix" result="effect1_dropShadow"/>
<feBlend mode="normal" in="SourceGraphic" in2="effect1_dropShadow" result="shape"/>
</filter>
<filter id="filter25_d" x="75.5" y="323.5" width="15" height="15" filterUnits="userSpaceOnUse" color-interpolation-filters="sRGB">
<feFlood flood-opacity="0" result="BackgroundImageFix"/>
<feColorMatrix in="SourceAlpha" type="matrix" values="0 0 0 0 0 0 0 0 0 0 0 0 0 0 0 0 0 0 127 0"/>
<feOffset dy="4"/>
<feGaussianBlur stdDeviation="2"/>
<feColorMatrix type="matrix" values="0 0 0 0 0 0 0 0 0 0 0 0 0 0 0 0 0 0 0.25 0"/>
<feBlend mode="normal" in2="BackgroundImageFix" result="effect1_dropShadow"/>
<feBlend mode="normal" in="SourceGraphic" in2="effect1_dropShadow" result="shape"/>
</filter>
<filter id="filter26_d" x="74.5" y="302" width="17" height="27.5" filterUnits="userSpaceOnUse" color-interpolation-filters="sRGB">
<feFlood flood-opacity="0" result="BackgroundImageFix"/>
<feColorMatrix in="SourceAlpha" type="matrix" values="0 0 0 0 0 0 0 0 0 0 0 0 0 0 0 0 0 0 127 0"/>
<feOffset dy="4"/>
<feGaussianBlur stdDeviation="2"/>
<feColorMatrix type="matrix" values="0 0 0 0 0 0 0 0 0 0 0 0 0 0 0 0 0 0 0.25 0"/>
<feBlend mode="normal" in2="BackgroundImageFix" result="effect1_dropShadow"/>
<feBlend mode="normal" in="SourceGraphic" in2="effect1_dropShadow" result="shape"/>
</filter>
<filter id="filter27_i" x="43.0636" y="41.597" width="429.458" height="435.25" filterUnits="userSpaceOnUse" color-interpolation-filters="sRGB">
<feFlood flood-opacity="0" result="BackgroundImageFix"/>
<feBlend mode="normal" in="SourceGraphic" in2="BackgroundImageFix" result="shape"/>
<feColorMatrix in="SourceAlpha" type="matrix" values="0 0 0 0 0 0 0 0 0 0 0 0 0 0 0 0 0 0 127 0" result="hardAlpha"/>
<feOffset dy="4"/>
<feGaussianBlur stdDeviation="7.5"/>
<feComposite in2="hardAlpha" operator="arithmetic" k2="-1" k3="1"/>
<feColorMatrix type="matrix" values="0 0 0 0 0 0 0 0 0 0 0 0 0 0 0 0 0 0 0.5 0"/>
<feBlend mode="normal" in2="shape" result="effect1_innerShadow"/>
</filter>
<radialGradient id="paint0_radial" cx="0" cy="0" r="1" gradientUnits="userSpaceOnUse" gradientTransform="translate(332.496 384.79) rotate(-156.464) scale(151.841 115.976)">
<stop stop-color="#881FA6" stop-opacity="0.37"/>
<stop offset="1" stop-color="#352975" stop-opacity="0.4"/>
</radialGradient>
<linearGradient id="paint1_linear" x1="166.671" y1="398.248" x2="256.923" y2="245.334" gradientUnits="userSpaceOnUse">
<stop stop-color="#241838"/>
<stop offset="0.0495026" stop-color="#241838"/>
<stop offset="0.214565" stop-color="#241838" stop-opacity="0.833333"/>
<stop offset="0.620122" stop-color="#241838" stop-opacity="0.658602"/>
<stop offset="1" stop-color="#241838" stop-opacity="0"/>
</linearGradient>
<linearGradient id="paint2_linear" x1="76.44" y1="321.973" x2="109.819" y2="406.361" gradientUnits="userSpaceOnUse">
<stop stop-color="#3A1F5B"/>
<stop offset="1" stop-color="#491C62"/>
</linearGradient>
<clipPath id="clip0">
<rect width="512" height="512" fill="white"/>
</clipPath>
</defs>
</svg>
