<svg width="299" height="296" viewBox="0 0 299 296" fill="none" xmlns="http://www.w3.org/2000/svg">
<mask id="mask0" mask-type="alpha" maskUnits="userSpaceOnUse" x="24" y="10" width="249" height="276">
<path fill-rule="evenodd" clip-rule="evenodd" d="M151 11.4827C174.894 16.5795 183.389 44.41 204.825 55.0999C224.519 64.9215 257.892 53.2521 269.411 70.5344C281.71 88.9864 256.905 111.641 256.812 133.097C256.743 148.87 270.969 162.89 268.939 178.559C266.859 194.611 252.84 206.856 245.347 221.574C235.654 240.614 237.443 266.75 218.044 278.529C199.348 289.882 172.913 283.904 151 278.864C131.125 274.292 115.155 262.137 98.7945 251.1C84.6442 241.554 73.0935 230.085 61.2457 218.314C48.8165 205.965 30.9492 195.994 27.0189 179.787C23.0878 163.576 40.4226 148.696 40.342 132.112C40.2319 109.471 17.6424 87.4224 26.4667 66.1879C34.701 46.3733 61.8503 38.4907 83.133 29.1416C104.537 19.7392 127.789 6.53149 151 11.4827Z" fill="#C4C4C4"/>
</mask>
<g mask="url(#mask0)">
<rect x="0.570068" width="297.86" height="296" fill="white"/>
<g filter="url(#filter0_d)">
<ellipse cx="99.4689" cy="105.219" rx="75.0467" ry="74.5781" fill="#5C6996"/>
</g>
<g filter="url(#filter1_d)">
<path d="M194.278 162.905C198.587 156.017 208.619 156.017 212.929 162.905L222.481 178.172C223.999 180.599 226.404 182.338 229.184 183.021L246.642 187.305C254.58 189.253 257.696 198.87 252.409 205.103L240.887 218.687C239.023 220.884 238.096 223.725 238.305 226.599L239.597 244.385C240.187 252.507 232.054 258.431 224.504 255.381L207.725 248.6C205.081 247.532 202.126 247.532 199.482 248.6L182.703 255.381C175.153 258.431 167.02 252.507 167.61 244.385L168.902 226.599C169.111 223.725 168.184 220.884 166.32 218.687L154.798 205.103C149.511 198.87 152.627 189.253 160.565 187.305L178.023 183.021C180.803 182.338 183.208 180.599 184.726 178.172L194.278 162.905Z" fill="#D3D2DB"/>
</g>
<g filter="url(#filter2_d)">
<rect x="126.812" y="67.0625" width="123.914" height="59.5469" rx="11" fill="#9EB6D9"/>
</g>
<g filter="url(#filter3_d)">
<rect x="37.2208" y="185.578" width="76.792" height="62.4375" rx="11" fill="#EFF8F9"/>
</g>
<g filter="url(#filter4_d)">
<path d="M98.7609 106.496C101.324 98.4608 111.626 96.2079 117.347 102.431L179.573 170.127C185.318 176.378 182.137 186.481 173.852 188.292L83.7446 207.997C75.4605 209.809 68.3049 201.966 70.8792 193.897L98.7609 106.496Z" fill="#859DBF"/>
</g>
<g filter="url(#filter5_i)">
<path fill-rule="evenodd" clip-rule="evenodd" d="M151 11.4827C174.894 16.5795 183.389 44.41 204.825 55.0999C224.519 64.9215 257.892 53.2521 269.411 70.5344C281.71 88.9864 256.905 111.641 256.812 133.097C256.743 148.87 270.969 162.89 268.939 178.559C266.859 194.611 252.84 206.856 245.347 221.574C235.654 240.614 237.443 266.75 218.044 278.529C199.348 289.882 172.913 283.904 151 278.864C131.125 274.292 115.155 262.137 98.7945 251.1C84.6442 241.554 73.0935 230.085 61.2457 218.314C48.8165 205.965 30.9492 195.994 27.0189 179.787C23.0878 163.576 40.4226 148.696 40.342 132.112C40.2319 109.471 17.6424 87.4224 26.4667 66.1879C34.701 46.3733 61.8503 38.4907 83.133 29.1416C104.537 19.7392 127.789 6.53149 151 11.4827Z" fill="white" fill-opacity="0.01"/>
</g>
</g>
<defs>
<filter id="filter0_d" x="20.4221" y="30.6406" width="158.093" height="157.156" filterUnits="userSpaceOnUse" color-interpolation-filters="sRGB">
<feFlood flood-opacity="0" result="BackgroundImageFix"/>
<feColorMatrix in="SourceAlpha" type="matrix" values="0 0 0 0 0 0 0 0 0 0 0 0 0 0 0 0 0 0 127 0"/>
<feOffset dy="4"/>
<feGaussianBlur stdDeviation="2"/>
<feColorMatrix type="matrix" values="0 0 0 0 0 0 0 0 0 0 0 0 0 0 0 0 0 0 0.25 0"/>
<feBlend mode="normal" in2="BackgroundImageFix" result="effect1_dropShadow"/>
<feBlend mode="normal" in="SourceGraphic" in2="effect1_dropShadow" result="shape"/>
</filter>
<filter id="filter1_d" x="148.179" y="157.739" width="110.85" height="106.456" filterUnits="userSpaceOnUse" color-interpolation-filters="sRGB">
<feFlood flood-opacity="0" result="BackgroundImageFix"/>
<feColorMatrix in="SourceAlpha" type="matrix" values="0 0 0 0 0 0 0 0 0 0 0 0 0 0 0 0 0 0 127 0"/>
<feOffset dy="4"/>
<feGaussianBlur stdDeviation="2"/>
<feColorMatrix type="matrix" values="0 0 0 0 0 0 0 0 0 0 0 0 0 0 0 0 0 0 0.25 0"/>
<feBlend mode="normal" in2="BackgroundImageFix" result="effect1_dropShadow"/>
<feBlend mode="normal" in="SourceGraphic" in2="effect1_dropShadow" result="shape"/>
</filter>
<filter id="filter2_d" x="122.812" y="67.0625" width="131.914" height="67.5469" filterUnits="userSpaceOnUse" color-interpolation-filters="sRGB">
<feFlood flood-opacity="0" result="BackgroundImageFix"/>
<feColorMatrix in="SourceAlpha" type="matrix" values="0 0 0 0 0 0 0 0 0 0 0 0 0 0 0 0 0 0 127 0"/>
<feOffset dy="4"/>
<feGaussianBlur stdDeviation="2"/>
<feColorMatrix type="matrix" values="0 0 0 0 0 0 0 0 0 0 0 0 0 0 0 0 0 0 0.25 0"/>
<feBlend mode="normal" in2="BackgroundImageFix" result="effect1_dropShadow"/>
<feBlend mode="normal" in="SourceGraphic" in2="effect1_dropShadow" result="shape"/>
</filter>
<filter id="filter3_d" x="33.2208" y="185.578" width="84.792" height="70.4375" filterUnits="userSpaceOnUse" color-interpolation-filters="sRGB">
<feFlood flood-opacity="0" result="BackgroundImageFix"/>
<feColorMatrix in="SourceAlpha" type="matrix" values="0 0 0 0 0 0 0 0 0 0 0 0 0 0 0 0 0 0 127 0"/>
<feOffset dy="4"/>
<feGaussianBlur stdDeviation="2"/>
<feColorMatrix type="matrix" values="0 0 0 0 0 0 0 0 0 0 0 0 0 0 0 0 0 0 0.25 0"/>
<feBlend mode="normal" in2="BackgroundImageFix" result="effect1_dropShadow"/>
<feBlend mode="normal" in="SourceGraphic" in2="effect1_dropShadow" result="shape"/>
</filter>
<filter id="filter4_d" x="66.3464" y="98.8579" width="120.143" height="117.403" filterUnits="userSpaceOnUse" color-interpolation-filters="sRGB">
<feFlood flood-opacity="0" result="BackgroundImageFix"/>
<feColorMatrix in="SourceAlpha" type="matrix" values="0 0 0 0 0 0 0 0 0 0 0 0 0 0 0 0 0 0 127 0"/>
<feOffset dy="4"/>
<feGaussianBlur stdDeviation="2"/>
<feColorMatrix type="matrix" values="0 0 0 0 0 0 0 0 0 0 0 0 0 0 0 0 0 0 0.25 0"/>
<feBlend mode="normal" in2="BackgroundImageFix" result="effect1_dropShadow"/>
<feBlend mode="normal" in="SourceGraphic" in2="effect1_dropShadow" result="shape"/>
</filter>
<filter id="filter5_i" x="24.4221" y="10.4062" width="248.411" height="278.609" filterUnits="userSpaceOnUse" color-interpolation-filters="sRGB">
<feFlood flood-opacity="0" result="BackgroundImageFix"/>
<feBlend mode="normal" in="SourceGraphic" in2="BackgroundImageFix" result="shape"/>
<feColorMatrix in="SourceAlpha" type="matrix" values="0 0 0 0 0 0 0 0 0 0 0 0 0 0 0 0 0 0 127 0" result="hardAlpha"/>
<feOffset dy="4"/>
<feGaussianBlur stdDeviation="7.5"/>
<feComposite in2="hardAlpha" operator="arithmetic" k2="-1" k3="1"/>
<feColorMatrix type="matrix" values="0 0 0 0 0 0 0 0 0 0 0 0 0 0 0 0 0 0 0.5 0"/>
<feBlend mode="normal" in2="shape" result="effect1_innerShadow"/>
</filter>
</defs>
</svg>
