<svg width="512" height="512" viewBox="0 0 512 512" fill="none" xmlns="http://www.w3.org/2000/svg">
<mask id="mask0" mask-type="alpha" maskUnits="userSpaceOnUse" x="40" y="40" width="432" height="432">
<path fill-rule="evenodd" clip-rule="evenodd" d="M245.763 40.7552C288.447 37.924 332.108 42.4507 368.647 64.6928C407.182 88.1493 435.575 124.831 452.543 166.625C470.479 210.806 478.11 259.257 466.403 305.48C454.169 353.78 426.527 397.796 386.482 427.452C346.203 457.281 294.791 479.297 245.763 468.877C199.307 459.003 179.096 406.138 142.694 375.64C109.956 348.211 57.3569 339.906 43.5799 299.483C29.786 259.011 59.1698 218.006 75.4999 178.489C90.4332 142.352 103.777 104.838 134.179 80.2445C165.622 54.8088 205.406 43.4319 245.763 40.7552Z" fill="#C4C4C4"/>
</mask>
<g mask="url(#mask0)">
<rect width="512" height="512" fill="#FBFBFF"/>
<g filter="url(#filter0_d)">
<rect x="56.5519" y="410.322" width="455.5" height="133" transform="rotate(0.0447262 56.5519 410.322)" fill="#313E51"/>
</g>
<g filter="url(#filter1_d)">
<rect x="-111.927" y="367.792" width="714.5" height="88" transform="rotate(-15.8576 -111.927 367.792)" fill="#4D435C"/>
</g>
<g filter="url(#filter2_d)">
<rect width="714.5" height="8.90232" transform="matrix(0.961944 -0.273247 -0.273247 -0.961944 -127.567 349.298)" fill="#4D435C"/>
</g>
<g filter="url(#filter3_d)">
<rect x="40" y="50.5" width="88.4739" height="133" rx="15" fill="#392878"/>
</g>
<g filter="url(#filter4_d)">
<rect x="137.726" y="50.5" width="88.4739" height="66.5" rx="15" fill="#A92EE3"/>
</g>
<g filter="url(#filter5_d)">
<rect x="233.717" y="50.5" width="42.7913" height="66.5" rx="15" fill="#4F398F"/>
</g>
<g filter="url(#filter6_d)">
<rect x="284.026" y="50.5" width="23.1304" height="66.5" rx="11.5652" fill="#9F2EE3"/>
</g>
<g filter="url(#filter7_d)">
<rect x="137.726" y="127.987" width="169.43" height="55.513" rx="15" fill="#5A82B0"/>
</g>
<g filter="url(#filter8_d)">
<rect x="88" y="319.5" width="17.5" height="119.5" rx="8.75" fill="#90726B"/>
</g>
<g filter="url(#filter9_d)">
<rect x="406.5" y="319.5" width="17.5" height="116.5" rx="8.75" fill="#90726B"/>
</g>
<g filter="url(#filter10_d)">
<rect x="61.5" y="302.5" width="389" height="21.5" rx="10.75" fill="#91726B"/>
</g>
<g filter="url(#filter11_d)">
<rect x="263" y="209.5" width="133.5" height="88" rx="13" fill="#F3F3F3"/>
</g>
<g filter="url(#filter12_d)">
<rect x="265.5" y="217" width="128.5" height="75" rx="13" fill="#3E1B55"/>
<rect x="265.5" y="217" width="128.5" height="75" rx="13" fill="url(#paint0_radial)"/>
<rect x="265.5" y="217" width="128.5" height="75" rx="13" fill="url(#paint1_linear)" fill-opacity="0.4"/>
</g>
<path fill-rule="evenodd" clip-rule="evenodd" d="M321.47 261.19C321.485 261.474 321.334 261.74 321.083 261.874L295.027 275.728C294.314 276.107 293.429 275.836 293.05 275.124L286.811 263.39C286.432 262.677 286.703 261.792 287.415 261.413L319.545 244.33C320.017 244.079 320.59 244.403 320.618 244.937L321.47 261.19Z" fill="#FBFBFF"/>
<path fill-rule="evenodd" clip-rule="evenodd" d="M301.965 253.677L321.325 261.582L321.361 261.614C321.332 261.661 321.296 261.706 321.256 261.746L300.623 254.39L301.965 253.677Z" fill="black" fill-opacity="0.25"/>
<path fill-rule="evenodd" clip-rule="evenodd" d="M320.582 244.253C320.568 243.97 320.39 243.72 320.126 243.614L292.765 232.559C292.016 232.257 291.164 232.618 290.862 233.367L285.884 245.688C285.581 246.437 285.943 247.289 286.691 247.591L301.874 253.725L313.023 258.23L321.369 261.602C321.44 261.481 321.477 261.34 321.47 261.194L321.47 261.19L320.648 245.512L320.582 244.253Z" fill="#FBFBFF"/>
<path d="M337.314 250.286C337.314 249.68 337.805 249.189 338.41 249.189H374.292C374.897 249.189 375.388 249.68 375.388 250.286L375.388 260.784C375.388 261.39 374.897 261.881 374.292 261.881H338.41C337.805 261.881 337.314 261.39 337.314 260.784L337.314 250.286Z" fill="#FBFBFF"/>
<circle cx="330" cy="213" r="2.5" fill="black"/>
<g filter="url(#filter13_d)">
<circle cx="330" cy="213" r="2" fill="#323232"/>
</g>
<g filter="url(#filter14_d)">
<path d="M330.971 212.471L330.75 212.25C330.612 212.112 330.612 211.888 330.75 211.75C330.888 211.612 331.112 211.612 331.25 211.75L331.406 211.906C331.466 211.966 331.5 212.048 331.5 212.134V212.423C331.5 212.691 331.138 212.777 331.018 212.537C331.006 212.512 330.99 212.49 330.971 212.471Z" fill="#F7F7F7"/>
</g>
<g filter="url(#filter15_d)">
<circle r="1" transform="matrix(1 0 0 -1 335 213)" fill="#B31414"/>
</g>
<g filter="url(#filter16_d)">
<rect x="258.5" y="294.5" width="135.5" height="6" rx="3" fill="#F3F3F3"/>
</g>
<g filter="url(#filter17_d)">
<path d="M147.5 293.25C147.5 289.522 144.478 286.5 140.75 286.5H82.3567C80.7357 286.5 79.8004 288.335 80.4724 289.81C81.5706 292.22 81.5848 294.263 80.4936 296.672C79.8226 298.153 80.7575 300 82.3837 300H140.75C144.478 300 147.5 296.978 147.5 293.25Z" fill="#7D2ECC"/>
</g>
<g filter="url(#filter18_d)">
<path d="M145.5 293.25C145.5 290.127 142.968 287.595 139.845 287.595H82.7164C81.0299 287.595 80.1357 289.569 80.7732 291.13C81.3643 292.578 81.374 293.9 80.7937 295.346C80.1638 296.917 81.0567 298.905 82.7488 298.905H139.845C142.968 298.905 145.5 296.373 145.5 293.25Z" fill="#FFFCFA"/>
</g>
<g filter="url(#filter19_d)">
<path d="M73 270.5C73 264.977 77.4772 260.5 83 260.5H139.078C140.484 260.5 141.448 261.915 140.997 263.247C138.611 270.298 138.584 275.195 140.985 282.244C141.439 283.579 140.475 285 139.065 285H83C77.4772 285 73 280.523 73 275V270.5Z" fill="#1B589F"/>
</g>
<g filter="url(#filter20_d)">
<path d="M75 272.486C75 266.964 79.4772 262.486 85 262.486H138.906C140.358 262.486 141.323 263.984 140.814 265.343C138.779 270.772 138.756 274.719 140.799 280.146C141.311 281.508 140.346 283.014 138.891 283.014H85C79.4772 283.014 75 278.536 75 273.014V272.486Z" fill="#FFFCFA"/>
</g>
<g filter="url(#filter21_d)">
<rect width="2.5" height="31.2976" rx="1" transform="matrix(-0.995402 0.0957889 0.0957888 0.995402 108.678 222.475)" fill="#FFAF36"/>
</g>
<g filter="url(#filter22_d)">
<rect width="2.5" height="3.20569" rx="1.25" transform="matrix(-0.995402 0.0957894 0.0957882 0.995402 108.323 218.786)" fill="#FF88E5"/>
</g>
<g filter="url(#filter23_d)">
<path d="M105.772 221.892C105.628 221.3 106.042 220.719 106.648 220.661L107.836 220.546C108.442 220.488 108.959 220.98 108.931 221.588L108.909 222.059C108.905 222.154 108.914 222.249 108.936 222.341L109.048 222.799C109.191 223.391 108.777 223.972 108.171 224.03L106.983 224.145C106.377 224.203 105.86 223.711 105.888 223.103L105.91 222.632C105.914 222.537 105.905 222.443 105.883 222.35L105.772 221.892Z" fill="#F2F1F1"/>
</g>
<g filter="url(#filter24_d)">
<rect width="2.50001" height="38" rx="1" transform="matrix(-0.999702 -0.0243961 -0.0243963 0.999702 114.926 218.483)" fill="#FFAF36"/>
</g>
<g filter="url(#filter25_d)">
<rect width="2.50001" height="4.42313" rx="1.25" transform="matrix(-0.999702 -0.0243962 -0.0243963 0.999702 115.046 213.561)" fill="#FF88E5"/>
</g>
<g filter="url(#filter26_d)">
<path d="M112.111 217.555C112.04 216.951 112.52 216.423 113.129 216.438L114.322 216.467C114.931 216.482 115.385 217.032 115.284 217.633L115.206 218.098C115.19 218.191 115.188 218.287 115.199 218.381L115.254 218.849C115.326 219.454 114.845 219.981 114.237 219.966L113.043 219.937C112.435 219.922 111.981 219.372 112.081 218.772L112.16 218.307C112.175 218.213 112.178 218.118 112.166 218.024L112.111 217.555Z" fill="#F2F1F1"/>
</g>
<g filter="url(#filter27_d)">
<rect width="2.5" height="38" rx="1" transform="matrix(-1 8.74229e-08 8.74227e-08 1 119.963 215)" fill="#0B0F2F"/>
</g>
<g filter="url(#filter28_d)">
<rect x="117" y="216.975" width="3.5" height="1.5" rx="0.75" fill="#C4C4C4"/>
</g>
<g filter="url(#filter29_d)">
<path d="M120.037 218.256C120.018 218.107 120.133 217.975 120.283 217.975C120.407 217.975 120.512 218.067 120.529 218.19L120.93 221.197C120.976 221.547 120.973 221.903 120.919 222.252L120.505 224.94C120.502 224.963 120.5 224.987 120.5 225.011V225.225C120.5 225.363 120.388 225.475 120.25 225.475C120.112 225.475 120 225.363 120 225.225V225.011C120 224.987 120.002 224.963 120.005 224.94L120.436 222.143C120.478 221.866 120.481 221.584 120.444 221.306L120.037 218.256Z" fill="#C4C4C4"/>
</g>
<g filter="url(#filter30_d)">
<rect x="103.5" y="233.5" width="21.5" height="25.5" rx="5" fill="#139CBA"/>
</g>
<g filter="url(#filter31_d)">
<path d="M351.512 333.798C351.512 328.572 355.749 324.335 360.976 324.335C366.202 324.335 370.439 328.572 370.439 333.798V385.368C370.439 390.594 366.202 394.831 360.976 394.831C355.749 394.831 351.512 390.594 351.512 385.368V333.798Z" fill="#C1EC65"/>
</g>
<g filter="url(#filter32_d)">
<path d="M374 339.929C374 337.207 376.207 335 378.929 335C381.651 335 383.858 337.207 383.858 339.929V367.455C383.858 370.178 381.651 372.384 378.929 372.384C376.207 372.384 374 370.178 374 367.455V339.929Z" fill="#8FC566"/>
</g>
<mask id="mask1" mask-type="alpha" maskUnits="userSpaceOnUse" x="351" y="323" width="20" height="71">
<path fill-rule="evenodd" clip-rule="evenodd" d="M360.581 323C355.355 323 351.118 328.739 351.118 335.817V380.679C351.118 387.758 355.355 393.496 360.581 393.496C365.808 393.496 370.045 387.758 370.045 380.679V335.817C370.045 328.739 365.808 323 360.581 323Z" fill="#8FC566"/>
</mask>
<g mask="url(#mask1)">
<g filter="url(#filter33_d)">
<path fill-rule="evenodd" clip-rule="evenodd" d="M353.412 327.175C354.105 326.237 355.228 326.237 355.921 327.175L360.653 333.584C361.346 334.523 361.346 336.044 360.653 336.983L359.369 338.722C358.065 340.488 358.065 342.897 359.369 344.662L360.653 346.402C361.346 347.34 361.346 348.862 360.653 349.8L359.369 351.54C358.065 353.305 358.065 355.714 359.369 357.48L360.653 359.219C361.346 360.158 361.346 361.679 360.653 362.618L359.369 364.357C358.065 366.123 358.065 368.532 359.369 370.297L360.653 372.037C361.346 372.975 361.346 374.497 360.653 375.435L359.369 377.175C358.065 378.94 358.065 381.349 359.369 383.115L360.653 384.854C361.346 385.793 361.346 387.314 360.653 388.253C359.96 389.191 358.837 389.191 358.144 388.253L353.412 381.844C352.719 380.905 352.719 379.384 353.412 378.445L354.696 376.706C356 374.94 356 372.531 354.696 370.766L353.412 369.027C352.719 368.088 352.719 366.566 353.412 365.628L354.696 363.888C356 362.123 356 359.714 354.696 357.949L353.412 356.209C352.719 355.271 352.719 353.749 353.412 352.81L354.696 351.071C356 349.305 356 346.896 354.696 345.131L353.412 343.392C352.719 342.453 352.719 340.931 353.412 339.993L354.696 338.253C356 336.488 356 334.079 354.696 332.314L353.412 330.574C352.719 329.636 352.719 328.114 353.412 327.175Z" fill="#8FC566"/>
<path fill-rule="evenodd" clip-rule="evenodd" d="M362.927 322.302C363.647 321.402 364.769 321.463 365.434 322.438L370.166 329.381C370.793 330.301 370.793 331.72 370.166 332.641L368.464 335.138C367.306 336.837 367.306 339.071 368.464 340.77L370.166 343.266C370.793 344.187 370.793 345.606 370.166 346.527L368.464 349.023C367.306 350.722 367.306 352.956 368.464 354.655L370.166 357.152C370.793 358.073 370.793 359.492 370.166 360.412L368.464 362.909C367.306 364.608 367.306 366.842 368.464 368.541L370.166 371.038C370.793 371.958 370.793 373.377 370.166 374.298L368.464 376.795C367.306 378.493 367.306 380.728 368.464 382.426L370.166 384.923C370.83 385.899 370.785 387.419 370.065 388.319C369.345 389.22 368.223 389.159 367.558 388.183L362.826 381.241C362.199 380.32 362.199 378.901 362.826 377.98L364.528 375.484C365.686 373.785 365.686 371.551 364.528 369.852L362.826 367.355C362.199 366.434 362.199 365.015 362.826 364.095L364.528 361.598C365.686 359.899 365.686 357.665 364.528 355.966L362.826 353.469C362.199 352.549 362.199 351.13 362.826 350.209L364.528 347.712C365.686 346.014 365.686 343.779 364.528 342.081L362.826 339.584C362.199 338.663 362.199 337.244 362.826 336.324L364.528 333.827C365.686 332.128 365.686 329.894 364.528 328.195L362.826 325.698C362.162 324.723 362.206 323.202 362.927 322.302Z" fill="#8FC566"/>
</g>
</g>
<g filter="url(#filter34_d)">
<path d="M343.004 398.113C342.499 394.504 345.302 391.282 348.946 391.282H375.517C379.11 391.282 381.897 394.419 381.475 397.987L378.557 422.658C378.2 425.678 375.64 427.953 372.599 427.953H352.394C349.402 427.953 346.867 425.748 346.452 422.784L343.004 398.113Z" fill="#C88273"/>
</g>
<g filter="url(#filter35_d)">
<path d="M338.5 391.379C338.5 388.103 341.232 385.488 344.506 385.632L356.441 386.157L381.099 385.52C384.333 385.437 387 388.036 387 391.271C387 394.515 384.319 397.117 381.076 397.02L373.791 396.803L344.317 397.132C341.115 397.168 338.5 394.582 338.5 391.379Z" fill="#715749"/>
</g>
<g filter="url(#filter36_d)">
<path d="M231.522 427.839C231.522 431.764 227.706 434.557 223.965 433.369L213.782 430.136C201.561 426.257 188.439 426.257 176.218 430.136L166.035 433.369C162.294 434.557 158.478 431.764 158.478 427.839C158.478 425.311 160.115 423.075 162.524 422.31L170.745 419.7C186.527 414.69 203.473 414.69 219.255 419.7L227.476 422.31C229.885 423.075 231.522 425.311 231.522 427.839Z" fill="#C4C4C4"/>
</g>
<g filter="url(#filter37_d)">
<rect x="200.217" y="372" width="62.6087" height="12.1739" rx="6.08695" transform="rotate(90 200.217 372)" fill="#C4C4C4"/>
</g>
<g filter="url(#filter38_d)">
<rect x="155" y="416.638" width="15.6522" height="24.9276" rx="7.82609" fill="#3B3B3B"/>
</g>
<g filter="url(#filter39_d)">
<rect x="186.304" y="421.855" width="15.6522" height="24.9275" rx="7.8261" fill="#3B3B3B"/>
</g>
<g filter="url(#filter40_d)">
<rect x="219.348" y="416.638" width="15.6522" height="24.9276" rx="7.82608" fill="#3B3B3B"/>
</g>
<g filter="url(#filter41_d)">
<rect x="138.5" y="207.5" width="96.5" height="126" rx="39" fill="#6D368F"/>
</g>
<g filter="url(#filter42_d)">
<rect x="130.5" y="207.5" width="102.5" height="126" rx="39" fill="#3C3C3C"/>
</g>
<g filter="url(#filter43_d)">
<rect x="153.5" y="362.5" width="88.5" height="2.5" rx="1.25" fill="#6D368F"/>
</g>
<g filter="url(#filter44_d)">
<rect x="147" y="364.5" width="102.5" height="15" rx="7.5" fill="#3B3B3B"/>
</g>
<g filter="url(#filter45_d)">
<path d="M166.5 304C166.5 299.306 170.306 295.5 175 295.5C179.694 295.5 183.5 299.306 183.5 304V320.168C183.5 322.255 183.765 324.334 184.288 326.355L197.405 376.982C198.719 382.054 194.89 387 189.652 387C186.024 387 182.849 384.562 181.914 381.056L167.332 326.427C166.78 324.359 166.5 322.227 166.5 320.087V304Z" fill="#C4C4C4"/>
</g>
<g filter="url(#filter46_i)">
<path fill-rule="evenodd" clip-rule="evenodd" d="M245.763 40.7552C288.447 37.924 332.108 42.4507 368.647 64.6928C407.182 88.1493 435.575 124.831 452.543 166.625C470.479 210.806 478.11 259.257 466.403 305.48C454.17 353.78 426.527 397.796 386.482 427.452C346.203 457.281 294.791 479.297 245.763 468.877C199.307 459.003 179.096 406.138 142.694 375.64C109.956 348.211 57.3569 339.906 43.5799 299.483C29.786 259.011 59.1698 218.006 75.4999 178.489C90.4332 142.352 103.777 104.838 134.179 80.2445C165.622 54.8088 205.406 43.4319 245.763 40.7552Z" fill="white" fill-opacity="0.01"/>
</g>
</g>
<defs>
<filter id="filter0_d" x="52.4481" y="410.322" width="463.604" height="141.355" filterUnits="userSpaceOnUse" color-interpolation-filters="sRGB">
<feFlood flood-opacity="0" result="BackgroundImageFix"/>
<feColorMatrix in="SourceAlpha" type="matrix" values="0 0 0 0 0 0 0 0 0 0 0 0 0 0 0 0 0 0 127 0"/>
<feOffset dy="4"/>
<feGaussianBlur stdDeviation="2"/>
<feColorMatrix type="matrix" values="0 0 0 0 0 0 0 0 0 0 0 0 0 0 0 0 0 0 0.25 0"/>
<feBlend mode="normal" in2="BackgroundImageFix" result="effect1_dropShadow"/>
<feBlend mode="normal" in="SourceGraphic" in2="effect1_dropShadow" result="shape"/>
</filter>
<filter id="filter1_d" x="-115.927" y="172.557" width="719.355" height="287.886" filterUnits="userSpaceOnUse" color-interpolation-filters="sRGB">
<feFlood flood-opacity="0" result="BackgroundImageFix"/>
<feColorMatrix in="SourceAlpha" type="matrix" values="0 0 0 0 0 0 0 0 0 0 0 0 0 0 0 0 0 0 127 0"/>
<feOffset dy="4"/>
<feGaussianBlur stdDeviation="2"/>
<feColorMatrix type="matrix" values="0 0 0 0 0 0 0 0 0 0 0 0 0 0 0 0 0 0 0.25 0"/>
<feBlend mode="normal" in2="BackgroundImageFix" result="effect1_dropShadow"/>
<feBlend mode="normal" in="SourceGraphic" in2="effect1_dropShadow" result="shape"/>
</filter>
<filter id="filter2_d" x="-134" y="145.5" width="697.742" height="211.798" filterUnits="userSpaceOnUse" color-interpolation-filters="sRGB">
<feFlood flood-opacity="0" result="BackgroundImageFix"/>
<feColorMatrix in="SourceAlpha" type="matrix" values="0 0 0 0 0 0 0 0 0 0 0 0 0 0 0 0 0 0 127 0"/>
<feOffset dy="4"/>
<feGaussianBlur stdDeviation="2"/>
<feColorMatrix type="matrix" values="0 0 0 0 0 0 0 0 0 0 0 0 0 0 0 0 0 0 0.25 0"/>
<feBlend mode="normal" in2="BackgroundImageFix" result="effect1_dropShadow"/>
<feBlend mode="normal" in="SourceGraphic" in2="effect1_dropShadow" result="shape"/>
</filter>
<filter id="filter3_d" x="36" y="50.5" width="96.4739" height="141" filterUnits="userSpaceOnUse" color-interpolation-filters="sRGB">
<feFlood flood-opacity="0" result="BackgroundImageFix"/>
<feColorMatrix in="SourceAlpha" type="matrix" values="0 0 0 0 0 0 0 0 0 0 0 0 0 0 0 0 0 0 127 0"/>
<feOffset dy="4"/>
<feGaussianBlur stdDeviation="2"/>
<feColorMatrix type="matrix" values="0 0 0 0 0 0 0 0 0 0 0 0 0 0 0 0 0 0 0.25 0"/>
<feBlend mode="normal" in2="BackgroundImageFix" result="effect1_dropShadow"/>
<feBlend mode="normal" in="SourceGraphic" in2="effect1_dropShadow" result="shape"/>
</filter>
<filter id="filter4_d" x="133.726" y="50.5" width="96.4739" height="74.5" filterUnits="userSpaceOnUse" color-interpolation-filters="sRGB">
<feFlood flood-opacity="0" result="BackgroundImageFix"/>
<feColorMatrix in="SourceAlpha" type="matrix" values="0 0 0 0 0 0 0 0 0 0 0 0 0 0 0 0 0 0 127 0"/>
<feOffset dy="4"/>
<feGaussianBlur stdDeviation="2"/>
<feColorMatrix type="matrix" values="0 0 0 0 0 0 0 0 0 0 0 0 0 0 0 0 0 0 0.25 0"/>
<feBlend mode="normal" in2="BackgroundImageFix" result="effect1_dropShadow"/>
<feBlend mode="normal" in="SourceGraphic" in2="effect1_dropShadow" result="shape"/>
</filter>
<filter id="filter5_d" x="229.717" y="50.5" width="50.7913" height="74.5" filterUnits="userSpaceOnUse" color-interpolation-filters="sRGB">
<feFlood flood-opacity="0" result="BackgroundImageFix"/>
<feColorMatrix in="SourceAlpha" type="matrix" values="0 0 0 0 0 0 0 0 0 0 0 0 0 0 0 0 0 0 127 0"/>
<feOffset dy="4"/>
<feGaussianBlur stdDeviation="2"/>
<feColorMatrix type="matrix" values="0 0 0 0 0 0 0 0 0 0 0 0 0 0 0 0 0 0 0.25 0"/>
<feBlend mode="normal" in2="BackgroundImageFix" result="effect1_dropShadow"/>
<feBlend mode="normal" in="SourceGraphic" in2="effect1_dropShadow" result="shape"/>
</filter>
<filter id="filter6_d" x="280.026" y="50.5" width="31.1304" height="74.5" filterUnits="userSpaceOnUse" color-interpolation-filters="sRGB">
<feFlood flood-opacity="0" result="BackgroundImageFix"/>
<feColorMatrix in="SourceAlpha" type="matrix" values="0 0 0 0 0 0 0 0 0 0 0 0 0 0 0 0 0 0 127 0"/>
<feOffset dy="4"/>
<feGaussianBlur stdDeviation="2"/>
<feColorMatrix type="matrix" values="0 0 0 0 0 0 0 0 0 0 0 0 0 0 0 0 0 0 0.25 0"/>
<feBlend mode="normal" in2="BackgroundImageFix" result="effect1_dropShadow"/>
<feBlend mode="normal" in="SourceGraphic" in2="effect1_dropShadow" result="shape"/>
</filter>
<filter id="filter7_d" x="133.726" y="127.987" width="177.43" height="63.513" filterUnits="userSpaceOnUse" color-interpolation-filters="sRGB">
<feFlood flood-opacity="0" result="BackgroundImageFix"/>
<feColorMatrix in="SourceAlpha" type="matrix" values="0 0 0 0 0 0 0 0 0 0 0 0 0 0 0 0 0 0 127 0"/>
<feOffset dy="4"/>
<feGaussianBlur stdDeviation="2"/>
<feColorMatrix type="matrix" values="0 0 0 0 0 0 0 0 0 0 0 0 0 0 0 0 0 0 0.25 0"/>
<feBlend mode="normal" in2="BackgroundImageFix" result="effect1_dropShadow"/>
<feBlend mode="normal" in="SourceGraphic" in2="effect1_dropShadow" result="shape"/>
</filter>
<filter id="filter8_d" x="84" y="319.5" width="25.5" height="127.5" filterUnits="userSpaceOnUse" color-interpolation-filters="sRGB">
<feFlood flood-opacity="0" result="BackgroundImageFix"/>
<feColorMatrix in="SourceAlpha" type="matrix" values="0 0 0 0 0 0 0 0 0 0 0 0 0 0 0 0 0 0 127 0"/>
<feOffset dy="4"/>
<feGaussianBlur stdDeviation="2"/>
<feColorMatrix type="matrix" values="0 0 0 0 0 0 0 0 0 0 0 0 0 0 0 0 0 0 0.25 0"/>
<feBlend mode="normal" in2="BackgroundImageFix" result="effect1_dropShadow"/>
<feBlend mode="normal" in="SourceGraphic" in2="effect1_dropShadow" result="shape"/>
</filter>
<filter id="filter9_d" x="402.5" y="319.5" width="25.5" height="124.5" filterUnits="userSpaceOnUse" color-interpolation-filters="sRGB">
<feFlood flood-opacity="0" result="BackgroundImageFix"/>
<feColorMatrix in="SourceAlpha" type="matrix" values="0 0 0 0 0 0 0 0 0 0 0 0 0 0 0 0 0 0 127 0"/>
<feOffset dy="4"/>
<feGaussianBlur stdDeviation="2"/>
<feColorMatrix type="matrix" values="0 0 0 0 0 0 0 0 0 0 0 0 0 0 0 0 0 0 0.25 0"/>
<feBlend mode="normal" in2="BackgroundImageFix" result="effect1_dropShadow"/>
<feBlend mode="normal" in="SourceGraphic" in2="effect1_dropShadow" result="shape"/>
</filter>
<filter id="filter10_d" x="57.5" y="302.5" width="397" height="29.5" filterUnits="userSpaceOnUse" color-interpolation-filters="sRGB">
<feFlood flood-opacity="0" result="BackgroundImageFix"/>
<feColorMatrix in="SourceAlpha" type="matrix" values="0 0 0 0 0 0 0 0 0 0 0 0 0 0 0 0 0 0 127 0"/>
<feOffset dy="4"/>
<feGaussianBlur stdDeviation="2"/>
<feColorMatrix type="matrix" values="0 0 0 0 0 0 0 0 0 0 0 0 0 0 0 0 0 0 0.25 0"/>
<feBlend mode="normal" in2="BackgroundImageFix" result="effect1_dropShadow"/>
<feBlend mode="normal" in="SourceGraphic" in2="effect1_dropShadow" result="shape"/>
</filter>
<filter id="filter11_d" x="259" y="209.5" width="141.5" height="96" filterUnits="userSpaceOnUse" color-interpolation-filters="sRGB">
<feFlood flood-opacity="0" result="BackgroundImageFix"/>
<feColorMatrix in="SourceAlpha" type="matrix" values="0 0 0 0 0 0 0 0 0 0 0 0 0 0 0 0 0 0 127 0"/>
<feOffset dy="4"/>
<feGaussianBlur stdDeviation="2"/>
<feColorMatrix type="matrix" values="0 0 0 0 0 0 0 0 0 0 0 0 0 0 0 0 0 0 0.25 0"/>
<feBlend mode="normal" in2="BackgroundImageFix" result="effect1_dropShadow"/>
<feBlend mode="normal" in="SourceGraphic" in2="effect1_dropShadow" result="shape"/>
</filter>
<filter id="filter12_d" x="261.5" y="217" width="136.5" height="83" filterUnits="userSpaceOnUse" color-interpolation-filters="sRGB">
<feFlood flood-opacity="0" result="BackgroundImageFix"/>
<feColorMatrix in="SourceAlpha" type="matrix" values="0 0 0 0 0 0 0 0 0 0 0 0 0 0 0 0 0 0 127 0"/>
<feOffset dy="4"/>
<feGaussianBlur stdDeviation="2"/>
<feColorMatrix type="matrix" values="0 0 0 0 0 0 0 0 0 0 0 0 0 0 0 0 0 0 0.25 0"/>
<feBlend mode="normal" in2="BackgroundImageFix" result="effect1_dropShadow"/>
<feBlend mode="normal" in="SourceGraphic" in2="effect1_dropShadow" result="shape"/>
</filter>
<filter id="filter13_d" x="324" y="211" width="12" height="12" filterUnits="userSpaceOnUse" color-interpolation-filters="sRGB">
<feFlood flood-opacity="0" result="BackgroundImageFix"/>
<feColorMatrix in="SourceAlpha" type="matrix" values="0 0 0 0 0 0 0 0 0 0 0 0 0 0 0 0 0 0 127 0"/>
<feOffset dy="4"/>
<feGaussianBlur stdDeviation="2"/>
<feColorMatrix type="matrix" values="0 0 0 0 0 0 0 0 0 0 0 0 0 0 0 0 0 0 0.25 0"/>
<feBlend mode="normal" in2="BackgroundImageFix" result="effect1_dropShadow"/>
<feBlend mode="normal" in="SourceGraphic" in2="effect1_dropShadow" result="shape"/>
</filter>
<filter id="filter14_d" x="326.646" y="211.646" width="8.85355" height="9.03134" filterUnits="userSpaceOnUse" color-interpolation-filters="sRGB">
<feFlood flood-opacity="0" result="BackgroundImageFix"/>
<feColorMatrix in="SourceAlpha" type="matrix" values="0 0 0 0 0 0 0 0 0 0 0 0 0 0 0 0 0 0 127 0"/>
<feOffset dy="4"/>
<feGaussianBlur stdDeviation="2"/>
<feColorMatrix type="matrix" values="0 0 0 0 0 0 0 0 0 0 0 0 0 0 0 0 0 0 0.25 0"/>
<feBlend mode="normal" in2="BackgroundImageFix" result="effect1_dropShadow"/>
<feBlend mode="normal" in="SourceGraphic" in2="effect1_dropShadow" result="shape"/>
</filter>
<filter id="filter15_d" x="330" y="212" width="10" height="10" filterUnits="userSpaceOnUse" color-interpolation-filters="sRGB">
<feFlood flood-opacity="0" result="BackgroundImageFix"/>
<feColorMatrix in="SourceAlpha" type="matrix" values="0 0 0 0 0 0 0 0 0 0 0 0 0 0 0 0 0 0 127 0"/>
<feOffset dy="4"/>
<feGaussianBlur stdDeviation="2"/>
<feColorMatrix type="matrix" values="0 0 0 0 0 0 0 0 0 0 0 0 0 0 0 0 0 0 0.25 0"/>
<feBlend mode="normal" in2="BackgroundImageFix" result="effect1_dropShadow"/>
<feBlend mode="normal" in="SourceGraphic" in2="effect1_dropShadow" result="shape"/>
</filter>
<filter id="filter16_d" x="254.5" y="294.5" width="143.5" height="14" filterUnits="userSpaceOnUse" color-interpolation-filters="sRGB">
<feFlood flood-opacity="0" result="BackgroundImageFix"/>
<feColorMatrix in="SourceAlpha" type="matrix" values="0 0 0 0 0 0 0 0 0 0 0 0 0 0 0 0 0 0 127 0"/>
<feOffset dy="4"/>
<feGaussianBlur stdDeviation="2"/>
<feColorMatrix type="matrix" values="0 0 0 0 0 0 0 0 0 0 0 0 0 0 0 0 0 0 0.25 0"/>
<feBlend mode="normal" in2="BackgroundImageFix" result="effect1_dropShadow"/>
<feBlend mode="normal" in="SourceGraphic" in2="effect1_dropShadow" result="shape"/>
</filter>
<filter id="filter17_d" x="76.2524" y="286.5" width="75.2476" height="21.5" filterUnits="userSpaceOnUse" color-interpolation-filters="sRGB">
<feFlood flood-opacity="0" result="BackgroundImageFix"/>
<feColorMatrix in="SourceAlpha" type="matrix" values="0 0 0 0 0 0 0 0 0 0 0 0 0 0 0 0 0 0 127 0"/>
<feOffset dy="4"/>
<feGaussianBlur stdDeviation="2"/>
<feColorMatrix type="matrix" values="0 0 0 0 0 0 0 0 0 0 0 0 0 0 0 0 0 0 0.25 0"/>
<feBlend mode="normal" in2="BackgroundImageFix" result="effect1_dropShadow"/>
<feBlend mode="normal" in="SourceGraphic" in2="effect1_dropShadow" result="shape"/>
</filter>
<filter id="filter18_d" x="76.567" y="287.595" width="72.933" height="19.3109" filterUnits="userSpaceOnUse" color-interpolation-filters="sRGB">
<feFlood flood-opacity="0" result="BackgroundImageFix"/>
<feColorMatrix in="SourceAlpha" type="matrix" values="0 0 0 0 0 0 0 0 0 0 0 0 0 0 0 0 0 0 127 0"/>
<feOffset dy="4"/>
<feGaussianBlur stdDeviation="2"/>
<feColorMatrix type="matrix" values="0 0 0 0 0 0 0 0 0 0 0 0 0 0 0 0 0 0 0.25 0"/>
<feBlend mode="normal" in2="BackgroundImageFix" result="effect1_dropShadow"/>
<feBlend mode="normal" in="SourceGraphic" in2="effect1_dropShadow" result="shape"/>
</filter>
<filter id="filter19_d" x="69" y="260.5" width="76.1094" height="32.5" filterUnits="userSpaceOnUse" color-interpolation-filters="sRGB">
<feFlood flood-opacity="0" result="BackgroundImageFix"/>
<feColorMatrix in="SourceAlpha" type="matrix" values="0 0 0 0 0 0 0 0 0 0 0 0 0 0 0 0 0 0 127 0"/>
<feOffset dy="4"/>
<feGaussianBlur stdDeviation="2"/>
<feColorMatrix type="matrix" values="0 0 0 0 0 0 0 0 0 0 0 0 0 0 0 0 0 0 0.25 0"/>
<feBlend mode="normal" in2="BackgroundImageFix" result="effect1_dropShadow"/>
<feBlend mode="normal" in="SourceGraphic" in2="effect1_dropShadow" result="shape"/>
</filter>
<filter id="filter20_d" x="71" y="262.486" width="73.951" height="28.5271" filterUnits="userSpaceOnUse" color-interpolation-filters="sRGB">
<feFlood flood-opacity="0" result="BackgroundImageFix"/>
<feColorMatrix in="SourceAlpha" type="matrix" values="0 0 0 0 0 0 0 0 0 0 0 0 0 0 0 0 0 0 127 0"/>
<feOffset dy="4"/>
<feGaussianBlur stdDeviation="2"/>
<feColorMatrix type="matrix" values="0 0 0 0 0 0 0 0 0 0 0 0 0 0 0 0 0 0 0.25 0"/>
<feBlend mode="normal" in2="BackgroundImageFix" result="effect1_dropShadow"/>
<feBlend mode="normal" in="SourceGraphic" in2="effect1_dropShadow" result="shape"/>
</filter>
<filter id="filter21_d" x="102.281" y="222.566" width="13.3042" height="39.2109" filterUnits="userSpaceOnUse" color-interpolation-filters="sRGB">
<feFlood flood-opacity="0" result="BackgroundImageFix"/>
<feColorMatrix in="SourceAlpha" type="matrix" values="0 0 0 0 0 0 0 0 0 0 0 0 0 0 0 0 0 0 127 0"/>
<feOffset dy="4"/>
<feGaussianBlur stdDeviation="2"/>
<feColorMatrix type="matrix" values="0 0 0 0 0 0 0 0 0 0 0 0 0 0 0 0 0 0 0.25 0"/>
<feBlend mode="normal" in2="BackgroundImageFix" result="effect1_dropShadow"/>
<feBlend mode="normal" in="SourceGraphic" in2="effect1_dropShadow" result="shape"/>
</filter>
<filter id="filter22_d" x="101.948" y="218.9" width="10.5678" height="11.2026" filterUnits="userSpaceOnUse" color-interpolation-filters="sRGB">
<feFlood flood-opacity="0" result="BackgroundImageFix"/>
<feColorMatrix in="SourceAlpha" type="matrix" values="0 0 0 0 0 0 0 0 0 0 0 0 0 0 0 0 0 0 127 0"/>
<feOffset dy="4"/>
<feGaussianBlur stdDeviation="2"/>
<feColorMatrix type="matrix" values="0 0 0 0 0 0 0 0 0 0 0 0 0 0 0 0 0 0 0.25 0"/>
<feBlend mode="normal" in2="BackgroundImageFix" result="effect1_dropShadow"/>
<feBlend mode="normal" in="SourceGraphic" in2="effect1_dropShadow" result="shape"/>
</filter>
<filter id="filter23_d" x="101.743" y="220.542" width="11.3329" height="11.6077" filterUnits="userSpaceOnUse" color-interpolation-filters="sRGB">
<feFlood flood-opacity="0" result="BackgroundImageFix"/>
<feColorMatrix in="SourceAlpha" type="matrix" values="0 0 0 0 0 0 0 0 0 0 0 0 0 0 0 0 0 0 127 0"/>
<feOffset dy="4"/>
<feGaussianBlur stdDeviation="2"/>
<feColorMatrix type="matrix" values="0 0 0 0 0 0 0 0 0 0 0 0 0 0 0 0 0 0 0.25 0"/>
<feBlend mode="normal" in2="BackgroundImageFix" result="effect1_dropShadow"/>
<feBlend mode="normal" in="SourceGraphic" in2="effect1_dropShadow" result="shape"/>
</filter>
<filter id="filter24_d" x="107.524" y="218.446" width="11.3781" height="46.0015" filterUnits="userSpaceOnUse" color-interpolation-filters="sRGB">
<feFlood flood-opacity="0" result="BackgroundImageFix"/>
<feColorMatrix in="SourceAlpha" type="matrix" values="0 0 0 0 0 0 0 0 0 0 0 0 0 0 0 0 0 0 127 0"/>
<feOffset dy="4"/>
<feGaussianBlur stdDeviation="2"/>
<feColorMatrix type="matrix" values="0 0 0 0 0 0 0 0 0 0 0 0 0 0 0 0 0 0 0.25 0"/>
<feBlend mode="normal" in2="BackgroundImageFix" result="effect1_dropShadow"/>
<feBlend mode="normal" in="SourceGraphic" in2="effect1_dropShadow" result="shape"/>
</filter>
<filter id="filter25_d" x="108.469" y="213.53" width="10.5469" height="12.4226" filterUnits="userSpaceOnUse" color-interpolation-filters="sRGB">
<feFlood flood-opacity="0" result="BackgroundImageFix"/>
<feColorMatrix in="SourceAlpha" type="matrix" values="0 0 0 0 0 0 0 0 0 0 0 0 0 0 0 0 0 0 127 0"/>
<feOffset dy="4"/>
<feGaussianBlur stdDeviation="2"/>
<feColorMatrix type="matrix" values="0 0 0 0 0 0 0 0 0 0 0 0 0 0 0 0 0 0 0.25 0"/>
<feBlend mode="normal" in2="BackgroundImageFix" result="effect1_dropShadow"/>
<feBlend mode="normal" in="SourceGraphic" in2="effect1_dropShadow" result="shape"/>
</filter>
<filter id="filter26_d" x="108.067" y="216.438" width="11.2307" height="11.5287" filterUnits="userSpaceOnUse" color-interpolation-filters="sRGB">
<feFlood flood-opacity="0" result="BackgroundImageFix"/>
<feColorMatrix in="SourceAlpha" type="matrix" values="0 0 0 0 0 0 0 0 0 0 0 0 0 0 0 0 0 0 127 0"/>
<feOffset dy="4"/>
<feGaussianBlur stdDeviation="2"/>
<feColorMatrix type="matrix" values="0 0 0 0 0 0 0 0 0 0 0 0 0 0 0 0 0 0 0.25 0"/>
<feBlend mode="normal" in2="BackgroundImageFix" result="effect1_dropShadow"/>
<feBlend mode="normal" in="SourceGraphic" in2="effect1_dropShadow" result="shape"/>
</filter>
<filter id="filter27_d" x="113.463" y="215" width="10.5" height="46" filterUnits="userSpaceOnUse" color-interpolation-filters="sRGB">
<feFlood flood-opacity="0" result="BackgroundImageFix"/>
<feColorMatrix in="SourceAlpha" type="matrix" values="0 0 0 0 0 0 0 0 0 0 0 0 0 0 0 0 0 0 127 0"/>
<feOffset dy="4"/>
<feGaussianBlur stdDeviation="2"/>
<feColorMatrix type="matrix" values="0 0 0 0 0 0 0 0 0 0 0 0 0 0 0 0 0 0 0.25 0"/>
<feBlend mode="normal" in2="BackgroundImageFix" result="effect1_dropShadow"/>
<feBlend mode="normal" in="SourceGraphic" in2="effect1_dropShadow" result="shape"/>
</filter>
<filter id="filter28_d" x="113" y="216.975" width="11.5" height="9.5" filterUnits="userSpaceOnUse" color-interpolation-filters="sRGB">
<feFlood flood-opacity="0" result="BackgroundImageFix"/>
<feColorMatrix in="SourceAlpha" type="matrix" values="0 0 0 0 0 0 0 0 0 0 0 0 0 0 0 0 0 0 127 0"/>
<feOffset dy="4"/>
<feGaussianBlur stdDeviation="2"/>
<feColorMatrix type="matrix" values="0 0 0 0 0 0 0 0 0 0 0 0 0 0 0 0 0 0 0.25 0"/>
<feBlend mode="normal" in2="BackgroundImageFix" result="effect1_dropShadow"/>
<feBlend mode="normal" in="SourceGraphic" in2="effect1_dropShadow" result="shape"/>
</filter>
<filter id="filter29_d" x="116" y="217.975" width="8.96212" height="15.5" filterUnits="userSpaceOnUse" color-interpolation-filters="sRGB">
<feFlood flood-opacity="0" result="BackgroundImageFix"/>
<feColorMatrix in="SourceAlpha" type="matrix" values="0 0 0 0 0 0 0 0 0 0 0 0 0 0 0 0 0 0 127 0"/>
<feOffset dy="4"/>
<feGaussianBlur stdDeviation="2"/>
<feColorMatrix type="matrix" values="0 0 0 0 0 0 0 0 0 0 0 0 0 0 0 0 0 0 0.25 0"/>
<feBlend mode="normal" in2="BackgroundImageFix" result="effect1_dropShadow"/>
<feBlend mode="normal" in="SourceGraphic" in2="effect1_dropShadow" result="shape"/>
</filter>
<filter id="filter30_d" x="99.5" y="233.5" width="29.5" height="33.5" filterUnits="userSpaceOnUse" color-interpolation-filters="sRGB">
<feFlood flood-opacity="0" result="BackgroundImageFix"/>
<feColorMatrix in="SourceAlpha" type="matrix" values="0 0 0 0 0 0 0 0 0 0 0 0 0 0 0 0 0 0 127 0"/>
<feOffset dy="4"/>
<feGaussianBlur stdDeviation="2"/>
<feColorMatrix type="matrix" values="0 0 0 0 0 0 0 0 0 0 0 0 0 0 0 0 0 0 0.25 0"/>
<feBlend mode="normal" in2="BackgroundImageFix" result="effect1_dropShadow"/>
<feBlend mode="normal" in="SourceGraphic" in2="effect1_dropShadow" result="shape"/>
</filter>
<filter id="filter31_d" x="347.512" y="324.335" width="26.9268" height="78.4962" filterUnits="userSpaceOnUse" color-interpolation-filters="sRGB">
<feFlood flood-opacity="0" result="BackgroundImageFix"/>
<feColorMatrix in="SourceAlpha" type="matrix" values="0 0 0 0 0 0 0 0 0 0 0 0 0 0 0 0 0 0 127 0"/>
<feOffset dy="4"/>
<feGaussianBlur stdDeviation="2"/>
<feColorMatrix type="matrix" values="0 0 0 0 0 0 0 0 0 0 0 0 0 0 0 0 0 0 0.25 0"/>
<feBlend mode="normal" in2="BackgroundImageFix" result="effect1_dropShadow"/>
<feBlend mode="normal" in="SourceGraphic" in2="effect1_dropShadow" result="shape"/>
</filter>
<filter id="filter32_d" x="370" y="335" width="17.8577" height="45.3843" filterUnits="userSpaceOnUse" color-interpolation-filters="sRGB">
<feFlood flood-opacity="0" result="BackgroundImageFix"/>
<feColorMatrix in="SourceAlpha" type="matrix" values="0 0 0 0 0 0 0 0 0 0 0 0 0 0 0 0 0 0 127 0"/>
<feOffset dy="4"/>
<feGaussianBlur stdDeviation="2"/>
<feColorMatrix type="matrix" values="0 0 0 0 0 0 0 0 0 0 0 0 0 0 0 0 0 0 0.25 0"/>
<feBlend mode="normal" in2="BackgroundImageFix" result="effect1_dropShadow"/>
<feBlend mode="normal" in="SourceGraphic" in2="effect1_dropShadow" result="shape"/>
</filter>
<filter id="filter33_d" x="348.892" y="321.665" width="25.7439" height="75.2919" filterUnits="userSpaceOnUse" color-interpolation-filters="sRGB">
<feFlood flood-opacity="0" result="BackgroundImageFix"/>
<feColorMatrix in="SourceAlpha" type="matrix" values="0 0 0 0 0 0 0 0 0 0 0 0 0 0 0 0 0 0 127 0"/>
<feOffset dy="4"/>
<feGaussianBlur stdDeviation="2"/>
<feColorMatrix type="matrix" values="0 0 0 0 0 0 0 0 0 0 0 0 0 0 0 0 0 0 0.25 0"/>
<feBlend mode="normal" in2="BackgroundImageFix" result="effect1_dropShadow"/>
<feBlend mode="normal" in="SourceGraphic" in2="effect1_dropShadow" result="shape"/>
</filter>
<filter id="filter34_d" x="338.945" y="391.282" width="46.5728" height="44.6707" filterUnits="userSpaceOnUse" color-interpolation-filters="sRGB">
<feFlood flood-opacity="0" result="BackgroundImageFix"/>
<feColorMatrix in="SourceAlpha" type="matrix" values="0 0 0 0 0 0 0 0 0 0 0 0 0 0 0 0 0 0 127 0"/>
<feOffset dy="4"/>
<feGaussianBlur stdDeviation="2"/>
<feColorMatrix type="matrix" values="0 0 0 0 0 0 0 0 0 0 0 0 0 0 0 0 0 0 0.25 0"/>
<feBlend mode="normal" in2="BackgroundImageFix" result="effect1_dropShadow"/>
<feBlend mode="normal" in="SourceGraphic" in2="effect1_dropShadow" result="shape"/>
</filter>
<filter id="filter35_d" x="334.5" y="385.518" width="56.5" height="19.6143" filterUnits="userSpaceOnUse" color-interpolation-filters="sRGB">
<feFlood flood-opacity="0" result="BackgroundImageFix"/>
<feColorMatrix in="SourceAlpha" type="matrix" values="0 0 0 0 0 0 0 0 0 0 0 0 0 0 0 0 0 0 127 0"/>
<feOffset dy="4"/>
<feGaussianBlur stdDeviation="2"/>
<feColorMatrix type="matrix" values="0 0 0 0 0 0 0 0 0 0 0 0 0 0 0 0 0 0 0.25 0"/>
<feBlend mode="normal" in2="BackgroundImageFix" result="effect1_dropShadow"/>
<feBlend mode="normal" in="SourceGraphic" in2="effect1_dropShadow" result="shape"/>
</filter>
<filter id="filter36_d" x="154.478" y="415.942" width="81.0435" height="25.7027" filterUnits="userSpaceOnUse" color-interpolation-filters="sRGB">
<feFlood flood-opacity="0" result="BackgroundImageFix"/>
<feColorMatrix in="SourceAlpha" type="matrix" values="0 0 0 0 0 0 0 0 0 0 0 0 0 0 0 0 0 0 127 0"/>
<feOffset dy="4"/>
<feGaussianBlur stdDeviation="2"/>
<feColorMatrix type="matrix" values="0 0 0 0 0 0 0 0 0 0 0 0 0 0 0 0 0 0 0.25 0"/>
<feBlend mode="normal" in2="BackgroundImageFix" result="effect1_dropShadow"/>
<feBlend mode="normal" in="SourceGraphic" in2="effect1_dropShadow" result="shape"/>
</filter>
<filter id="filter37_d" x="184.043" y="372" width="20.1739" height="70.6087" filterUnits="userSpaceOnUse" color-interpolation-filters="sRGB">
<feFlood flood-opacity="0" result="BackgroundImageFix"/>
<feColorMatrix in="SourceAlpha" type="matrix" values="0 0 0 0 0 0 0 0 0 0 0 0 0 0 0 0 0 0 127 0"/>
<feOffset dy="4"/>
<feGaussianBlur stdDeviation="2"/>
<feColorMatrix type="matrix" values="0 0 0 0 0 0 0 0 0 0 0 0 0 0 0 0 0 0 0.25 0"/>
<feBlend mode="normal" in2="BackgroundImageFix" result="effect1_dropShadow"/>
<feBlend mode="normal" in="SourceGraphic" in2="effect1_dropShadow" result="shape"/>
</filter>
<filter id="filter38_d" x="151" y="416.638" width="23.6522" height="32.9276" filterUnits="userSpaceOnUse" color-interpolation-filters="sRGB">
<feFlood flood-opacity="0" result="BackgroundImageFix"/>
<feColorMatrix in="SourceAlpha" type="matrix" values="0 0 0 0 0 0 0 0 0 0 0 0 0 0 0 0 0 0 127 0"/>
<feOffset dy="4"/>
<feGaussianBlur stdDeviation="2"/>
<feColorMatrix type="matrix" values="0 0 0 0 0 0 0 0 0 0 0 0 0 0 0 0 0 0 0.25 0"/>
<feBlend mode="normal" in2="BackgroundImageFix" result="effect1_dropShadow"/>
<feBlend mode="normal" in="SourceGraphic" in2="effect1_dropShadow" result="shape"/>
</filter>
<filter id="filter39_d" x="182.304" y="421.855" width="23.6522" height="32.9275" filterUnits="userSpaceOnUse" color-interpolation-filters="sRGB">
<feFlood flood-opacity="0" result="BackgroundImageFix"/>
<feColorMatrix in="SourceAlpha" type="matrix" values="0 0 0 0 0 0 0 0 0 0 0 0 0 0 0 0 0 0 127 0"/>
<feOffset dy="4"/>
<feGaussianBlur stdDeviation="2"/>
<feColorMatrix type="matrix" values="0 0 0 0 0 0 0 0 0 0 0 0 0 0 0 0 0 0 0.25 0"/>
<feBlend mode="normal" in2="BackgroundImageFix" result="effect1_dropShadow"/>
<feBlend mode="normal" in="SourceGraphic" in2="effect1_dropShadow" result="shape"/>
</filter>
<filter id="filter40_d" x="215.348" y="416.638" width="23.6522" height="32.9276" filterUnits="userSpaceOnUse" color-interpolation-filters="sRGB">
<feFlood flood-opacity="0" result="BackgroundImageFix"/>
<feColorMatrix in="SourceAlpha" type="matrix" values="0 0 0 0 0 0 0 0 0 0 0 0 0 0 0 0 0 0 127 0"/>
<feOffset dy="4"/>
<feGaussianBlur stdDeviation="2"/>
<feColorMatrix type="matrix" values="0 0 0 0 0 0 0 0 0 0 0 0 0 0 0 0 0 0 0.25 0"/>
<feBlend mode="normal" in2="BackgroundImageFix" result="effect1_dropShadow"/>
<feBlend mode="normal" in="SourceGraphic" in2="effect1_dropShadow" result="shape"/>
</filter>
<filter id="filter41_d" x="134.5" y="207.5" width="104.5" height="134" filterUnits="userSpaceOnUse" color-interpolation-filters="sRGB">
<feFlood flood-opacity="0" result="BackgroundImageFix"/>
<feColorMatrix in="SourceAlpha" type="matrix" values="0 0 0 0 0 0 0 0 0 0 0 0 0 0 0 0 0 0 127 0"/>
<feOffset dy="4"/>
<feGaussianBlur stdDeviation="2"/>
<feColorMatrix type="matrix" values="0 0 0 0 0 0 0 0 0 0 0 0 0 0 0 0 0 0 0.25 0"/>
<feBlend mode="normal" in2="BackgroundImageFix" result="effect1_dropShadow"/>
<feBlend mode="normal" in="SourceGraphic" in2="effect1_dropShadow" result="shape"/>
</filter>
<filter id="filter42_d" x="126.5" y="207.5" width="110.5" height="134" filterUnits="userSpaceOnUse" color-interpolation-filters="sRGB">
<feFlood flood-opacity="0" result="BackgroundImageFix"/>
<feColorMatrix in="SourceAlpha" type="matrix" values="0 0 0 0 0 0 0 0 0 0 0 0 0 0 0 0 0 0 127 0"/>
<feOffset dy="4"/>
<feGaussianBlur stdDeviation="2"/>
<feColorMatrix type="matrix" values="0 0 0 0 0 0 0 0 0 0 0 0 0 0 0 0 0 0 0.25 0"/>
<feBlend mode="normal" in2="BackgroundImageFix" result="effect1_dropShadow"/>
<feBlend mode="normal" in="SourceGraphic" in2="effect1_dropShadow" result="shape"/>
</filter>
<filter id="filter43_d" x="149.5" y="362.5" width="96.5" height="10.5" filterUnits="userSpaceOnUse" color-interpolation-filters="sRGB">
<feFlood flood-opacity="0" result="BackgroundImageFix"/>
<feColorMatrix in="SourceAlpha" type="matrix" values="0 0 0 0 0 0 0 0 0 0 0 0 0 0 0 0 0 0 127 0"/>
<feOffset dy="4"/>
<feGaussianBlur stdDeviation="2"/>
<feColorMatrix type="matrix" values="0 0 0 0 0 0 0 0 0 0 0 0 0 0 0 0 0 0 0.25 0"/>
<feBlend mode="normal" in2="BackgroundImageFix" result="effect1_dropShadow"/>
<feBlend mode="normal" in="SourceGraphic" in2="effect1_dropShadow" result="shape"/>
</filter>
<filter id="filter44_d" x="143" y="364.5" width="110.5" height="23" filterUnits="userSpaceOnUse" color-interpolation-filters="sRGB">
<feFlood flood-opacity="0" result="BackgroundImageFix"/>
<feColorMatrix in="SourceAlpha" type="matrix" values="0 0 0 0 0 0 0 0 0 0 0 0 0 0 0 0 0 0 127 0"/>
<feOffset dy="4"/>
<feGaussianBlur stdDeviation="2"/>
<feColorMatrix type="matrix" values="0 0 0 0 0 0 0 0 0 0 0 0 0 0 0 0 0 0 0.25 0"/>
<feBlend mode="normal" in2="BackgroundImageFix" result="effect1_dropShadow"/>
<feBlend mode="normal" in="SourceGraphic" in2="effect1_dropShadow" result="shape"/>
</filter>
<filter id="filter45_d" x="162.5" y="295.5" width="39.1648" height="99.5" filterUnits="userSpaceOnUse" color-interpolation-filters="sRGB">
<feFlood flood-opacity="0" result="BackgroundImageFix"/>
<feColorMatrix in="SourceAlpha" type="matrix" values="0 0 0 0 0 0 0 0 0 0 0 0 0 0 0 0 0 0 127 0"/>
<feOffset dy="4"/>
<feGaussianBlur stdDeviation="2"/>
<feColorMatrix type="matrix" values="0 0 0 0 0 0 0 0 0 0 0 0 0 0 0 0 0 0 0.25 0"/>
<feBlend mode="normal" in2="BackgroundImageFix" result="effect1_dropShadow"/>
<feBlend mode="normal" in="SourceGraphic" in2="effect1_dropShadow" result="shape"/>
</filter>
<filter id="filter46_i" x="40" y="40" width="432" height="432.5" filterUnits="userSpaceOnUse" color-interpolation-filters="sRGB">
<feFlood flood-opacity="0" result="BackgroundImageFix"/>
<feBlend mode="normal" in="SourceGraphic" in2="BackgroundImageFix" result="shape"/>
<feColorMatrix in="SourceAlpha" type="matrix" values="0 0 0 0 0 0 0 0 0 0 0 0 0 0 0 0 0 0 127 0" result="hardAlpha"/>
<feOffset dy="1"/>
<feGaussianBlur stdDeviation="7.5"/>
<feComposite in2="hardAlpha" operator="arithmetic" k2="-1" k3="1"/>
<feColorMatrix type="matrix" values="0 0 0 0 0 0 0 0 0 0 0 0 0 0 0 0 0 0 0.5 0"/>
<feBlend mode="normal" in2="shape" result="effect1_innerShadow"/>
</filter>
<radialGradient id="paint0_radial" cx="0" cy="0" r="1" gradientUnits="userSpaceOnUse" gradientTransform="translate(386.147 281.375) rotate(-156.464) scale(110.473 84.3789)">
<stop stop-color="#881FA6" stop-opacity="0.37"/>
<stop offset="1" stop-color="#352975" stop-opacity="0.4"/>
</radialGradient>
<linearGradient id="paint1_linear" x1="265.5" y1="291.167" x2="331.164" y2="179.913" gradientUnits="userSpaceOnUse">
<stop stop-color="#241838"/>
<stop offset="0.0495026" stop-color="#241838"/>
<stop offset="0.214565" stop-color="#241838" stop-opacity="0.833333"/>
<stop offset="0.620122" stop-color="#241838" stop-opacity="0.658602"/>
<stop offset="1" stop-color="#241838" stop-opacity="0"/>
</linearGradient>
</defs>
</svg>
