<svg width="298" height="296" viewBox="0 0 298 296" fill="none" xmlns="http://www.w3.org/2000/svg">
<g clip-path="url(#clip0)">
<mask id="mask0" mask-type="alpha" maskUnits="userSpaceOnUse" x="10" y="14" width="270" height="274">
<path fill-rule="evenodd" clip-rule="evenodd" d="M14.5974 61.1228C32.812 20.85 88.0409 13.8761 132.396 15.0147C167.876 15.9255 193.19 42.5677 219.358 66.379C245.894 90.5263 278.464 113.167 279.584 148.949C280.816 188.295 256.337 223.173 225.022 247.296C190.849 273.621 146.375 299.286 106.859 282.007C69.2215 265.55 75.7528 212.895 59.9789 175.13C43.3922 135.42 -3.15937 100.383 14.5974 61.1228Z" fill="#C4C4C4"/>
</mask>
<g mask="url(#mask0)">
<rect x="-11.2809" y="1.21558" width="297.86" height="296" fill="white"/>
<ellipse rx="9.09116" ry="9.03567" transform="matrix(0.994389 0.105784 -0.107102 0.994248 5.39895 47.3748)" fill="#F6F3FB"/>
<ellipse rx="9.09116" ry="9.03568" transform="matrix(0.994389 0.105784 -0.107102 0.994248 20.4472 25.2108)" fill="#F6F3FB"/>
<ellipse rx="9.09116" ry="9.03568" transform="matrix(0.994389 0.105784 -0.107102 0.994248 15.385 72.2025)" fill="#F6F3FB"/>
<ellipse rx="9.09116" ry="9.03566" transform="matrix(0.994389 0.105783 -0.107102 0.994248 10.323 119.194)" fill="#F6F3FB"/>
<ellipse rx="9.09116" ry="9.03567" transform="matrix(0.994389 0.105784 -0.107102 0.994248 5.26113 166.186)" fill="#F6F3FB"/>
<ellipse rx="9.09116" ry="9.03568" transform="matrix(0.994389 0.105784 -0.107102 0.994248 33.9103 50.408)" fill="#F6F3FB"/>
<ellipse rx="9.09116" ry="9.03568" transform="matrix(0.994389 0.105784 -0.107102 0.994248 28.8482 97.3997)" fill="#F6F3FB"/>
<ellipse rx="9.09116" ry="9.03568" transform="matrix(0.994389 0.105784 -0.107102 0.994248 23.7862 144.391)" fill="#F6F3FB"/>
<ellipse rx="9.09116" ry="9.03566" transform="matrix(0.994389 0.105783 -0.107102 0.994248 18.7241 191.383)" fill="#F6F3FB"/>
<ellipse rx="9.09116" ry="9.03569" transform="matrix(0.994389 0.105784 -0.107102 0.994248 13.6621 238.375)" fill="#F6F3FB"/>
<ellipse rx="9.09116" ry="9.03567" transform="matrix(0.994389 0.105783 -0.107102 0.994248 8.60024 285.366)" fill="#F6F3FB"/>
<ellipse rx="9.09116" ry="9.03567" transform="matrix(0.994389 0.105784 -0.107102 0.994248 48.9583 28.2437)" fill="#F6F3FB"/>
<ellipse rx="9.09116" ry="9.03568" transform="matrix(0.994389 0.105784 -0.107102 0.994248 43.8964 75.2354)" fill="#F6F3FB"/>
<ellipse rx="9.09116" ry="9.03567" transform="matrix(0.994389 0.105784 -0.107102 0.994248 38.8344 122.227)" fill="#F6F3FB"/>
<ellipse rx="9.09116" ry="9.03567" transform="matrix(0.994389 0.105784 -0.107102 0.994248 33.7724 169.219)" fill="#F6F3FB"/>
<ellipse rx="9.09116" ry="9.03567" transform="matrix(0.994389 0.105784 -0.107102 0.994248 28.7104 216.21)" fill="#F6F3FB"/>
<ellipse rx="9.09116" ry="9.03567" transform="matrix(0.994389 0.105784 -0.107102 0.994248 23.6482 263.202)" fill="#F6F3FB"/>
<ellipse rx="9.09117" ry="9.03567" transform="matrix(0.994389 0.105783 -0.107102 0.994248 67.4834 6.4493)" fill="#F6F3FB"/>
<ellipse rx="9.09115" ry="9.03567" transform="matrix(0.994389 0.105784 -0.107102 0.994248 62.4214 53.441)" fill="#F6F3FB"/>
<ellipse rx="9.09115" ry="9.03568" transform="matrix(0.994389 0.105784 -0.107102 0.994248 57.3594 100.433)" fill="#F6F3FB"/>
<ellipse rx="9.09116" ry="9.03567" transform="matrix(0.994389 0.105783 -0.107102 0.994248 52.2975 147.424)" fill="#F6F3FB"/>
<ellipse rx="9.09116" ry="9.03566" transform="matrix(0.994389 0.105783 -0.107102 0.994248 47.2355 194.416)" fill="#F6F3FB"/>
<ellipse rx="9.09116" ry="9.03568" transform="matrix(0.994389 0.105784 -0.107102 0.994248 42.1735 241.408)" fill="#F6F3FB"/>
<ellipse rx="9.09116" ry="9.03568" transform="matrix(0.994389 0.105784 -0.107102 0.994248 37.1114 288.399)" fill="#F6F3FB"/>
<ellipse rx="9.09116" ry="9.03567" transform="matrix(0.994389 0.105784 -0.107102 0.994248 77.4696 31.2769)" fill="#F6F3FB"/>
<ellipse rx="9.09116" ry="9.03568" transform="matrix(0.994389 0.105784 -0.107102 0.994248 72.4076 78.2684)" fill="#F6F3FB"/>
<ellipse rx="9.09116" ry="9.03568" transform="matrix(0.994389 0.105784 -0.107102 0.994248 67.3456 125.26)" fill="#F6F3FB"/>
<ellipse rx="9.09116" ry="9.03567" transform="matrix(0.994389 0.105784 -0.107102 0.994248 62.2835 172.252)" fill="#F6F3FB"/>
<ellipse rx="9.09116" ry="9.03567" transform="matrix(0.994389 0.105783 -0.107102 0.994248 57.2216 219.243)" fill="#F6F3FB"/>
<ellipse rx="9.09116" ry="9.03568" transform="matrix(0.994389 0.105784 -0.107102 0.994248 52.1596 266.235)" fill="#F6F3FB"/>
<ellipse rx="9.09116" ry="9.03567" transform="matrix(0.994389 0.105783 -0.107102 0.994248 95.9948 9.4825)" fill="#F6F3FB"/>
<ellipse rx="9.09116" ry="9.03567" transform="matrix(0.994389 0.105784 -0.107102 0.994248 90.9328 56.4742)" fill="#F6F3FB"/>
<ellipse rx="9.09116" ry="9.03567" transform="matrix(0.994389 0.105783 -0.107102 0.994248 85.8708 103.466)" fill="#F6F3FB"/>
<ellipse rx="9.09115" ry="9.03567" transform="matrix(0.994389 0.105784 -0.107102 0.994248 80.8087 150.457)" fill="#F6F3FB"/>
<ellipse rx="9.09116" ry="9.03567" transform="matrix(0.994389 0.105784 -0.107102 0.994248 75.7467 197.449)" fill="#F6F3FB"/>
<ellipse rx="9.09116" ry="9.03567" transform="matrix(0.994389 0.105784 -0.107102 0.994248 70.6846 244.441)" fill="#F6F3FB"/>
<ellipse rx="9.09116" ry="9.03565" transform="matrix(0.994389 0.105783 -0.107102 0.994248 65.6226 291.432)" fill="#F6F3FB"/>
<ellipse rx="9.09115" ry="9.03567" transform="matrix(0.994389 0.105784 -0.107102 0.994248 105.981 34.3099)" fill="#F6F3FB"/>
<ellipse rx="9.09115" ry="9.03567" transform="matrix(0.994389 0.105784 -0.107102 0.994248 100.919 81.3014)" fill="#F6F3FB"/>
<ellipse rx="9.09116" ry="9.03567" transform="matrix(0.994389 0.105784 -0.107102 0.994248 95.8568 128.293)" fill="#F6F3FB"/>
<ellipse rx="9.09115" ry="9.03567" transform="matrix(0.994389 0.105784 -0.107102 0.994248 90.7948 175.285)" fill="#F6F3FB"/>
<ellipse rx="9.09116" ry="9.03566" transform="matrix(0.994389 0.105783 -0.107102 0.994248 85.7328 222.276)" fill="#F6F3FB"/>
<ellipse rx="9.09115" ry="9.03567" transform="matrix(0.994389 0.105784 -0.107102 0.994248 80.6708 269.268)" fill="#F6F3FB"/>
<ellipse rx="9.09115" ry="9.03567" transform="matrix(0.994389 0.105784 -0.107102 0.994248 124.506 12.5155)" fill="#F6F3FB"/>
<ellipse rx="9.09114" ry="9.03567" transform="matrix(0.994389 0.105784 -0.107102 0.994248 119.444 59.5072)" fill="#F6F3FB"/>
<ellipse rx="9.09116" ry="9.03567" transform="matrix(0.994389 0.105784 -0.107102 0.994248 114.382 106.499)" fill="#F6F3FB"/>
<ellipse rx="9.09116" ry="9.03567" transform="matrix(0.994389 0.105783 -0.107102 0.994248 109.32 153.491)" fill="#F6F3FB"/>
<ellipse rx="9.09115" ry="9.03567" transform="matrix(0.994389 0.105784 -0.107102 0.994248 104.258 200.482)" fill="#F6F3FB"/>
<ellipse rx="9.09115" ry="9.03565" transform="matrix(0.994389 0.105783 -0.107102 0.994248 99.1959 247.474)" fill="#F6F3FB"/>
<ellipse rx="9.09116" ry="9.03568" transform="matrix(0.994389 0.105784 -0.107102 0.994248 94.1339 294.465)" fill="#F6F3FB"/>
<ellipse rx="9.09117" ry="9.03567" transform="matrix(0.994389 0.105783 -0.107102 0.994248 134.492 37.3429)" fill="#F6F3FB"/>
<ellipse rx="9.09115" ry="9.03567" transform="matrix(0.994389 0.105784 -0.107102 0.994248 129.43 84.3346)" fill="#F6F3FB"/>
<ellipse rx="9.09116" ry="9.03568" transform="matrix(0.994389 0.105784 -0.107102 0.994248 124.368 131.326)" fill="#F6F3FB"/>
<ellipse rx="9.09115" ry="9.03567" transform="matrix(0.994389 0.105784 -0.107102 0.994248 119.306 178.318)" fill="#F6F3FB"/>
<ellipse rx="9.09117" ry="9.03565" transform="matrix(0.994389 0.105783 -0.107102 0.994248 114.244 225.309)" fill="#F6F3FB"/>
<ellipse rx="9.09115" ry="9.03568" transform="matrix(0.994389 0.105784 -0.107102 0.994248 109.182 272.301)" fill="#F6F3FB"/>
<ellipse rx="9.09117" ry="9.03567" transform="matrix(0.994389 0.105783 -0.107102 0.994248 153.017 15.5484)" fill="#F6F3FB"/>
<ellipse rx="9.09117" ry="9.03567" transform="matrix(0.994389 0.105783 -0.107102 0.994248 147.955 62.5401)" fill="#F6F3FB"/>
<ellipse rx="9.09116" ry="9.03566" transform="matrix(0.994389 0.105783 -0.107102 0.994248 142.893 109.532)" fill="#F6F3FB"/>
<ellipse rx="9.09117" ry="9.03567" transform="matrix(0.994389 0.105783 -0.107102 0.994248 137.831 156.524)" fill="#F6F3FB"/>
<ellipse rx="9.09116" ry="9.03567" transform="matrix(0.994389 0.105783 -0.107102 0.994248 132.769 203.515)" fill="#F6F3FB"/>
<ellipse rx="9.09116" ry="9.0357" transform="matrix(0.994389 0.105784 -0.107102 0.994248 127.707 250.507)" fill="#F6F3FB"/>
<ellipse rx="9.09116" ry="9.03565" transform="matrix(0.994389 0.105783 -0.107102 0.994248 122.645 297.498)" fill="#F6F3FB"/>
<ellipse rx="9.09116" ry="9.03567" transform="matrix(0.994389 0.105784 -0.107102 0.994248 163.003 40.3758)" fill="#F6F3FB"/>
<ellipse rx="9.09116" ry="9.03567" transform="matrix(0.994389 0.105784 -0.107102 0.994248 157.941 87.3675)" fill="#F6F3FB"/>
<ellipse rx="9.09116" ry="9.03568" transform="matrix(0.994389 0.105784 -0.107102 0.994248 152.879 134.359)" fill="#F6F3FB"/>
<ellipse rx="9.09115" ry="9.03567" transform="matrix(0.994389 0.105784 -0.107102 0.994248 147.817 181.351)" fill="#F6F3FB"/>
<ellipse rx="9.09115" ry="9.03566" transform="matrix(0.994389 0.105784 -0.107102 0.994248 142.755 228.343)" fill="#F6F3FB"/>
<ellipse rx="9.09116" ry="9.0357" transform="matrix(0.994389 0.105784 -0.107102 0.994248 137.693 275.334)" fill="#F6F3FB"/>
<ellipse rx="9.09117" ry="9.03567" transform="matrix(0.994389 0.105783 -0.107102 0.994248 181.528 18.5816)" fill="#F6F3FB"/>
<ellipse rx="9.09116" ry="9.03567" transform="matrix(0.994389 0.105784 -0.107102 0.994248 176.466 65.5733)" fill="#F6F3FB"/>
<ellipse rx="9.09115" ry="9.03567" transform="matrix(0.994389 0.105784 -0.107102 0.994248 171.404 112.565)" fill="#F6F3FB"/>
<ellipse rx="9.09115" ry="9.03567" transform="matrix(0.994389 0.105784 -0.107102 0.994248 166.343 159.556)" fill="#F6F3FB"/>
<ellipse rx="9.09115" ry="9.03567" transform="matrix(0.994389 0.105784 -0.107102 0.994248 161.28 206.548)" fill="#F6F3FB"/>
<ellipse rx="9.09117" ry="9.03568" transform="matrix(0.994389 0.105784 -0.107102 0.994248 156.218 253.54)" fill="#F6F3FB"/>
<ellipse rx="9.09117" ry="9.03567" transform="matrix(0.994389 0.105783 -0.107102 0.994248 191.515 43.409)" fill="#F6F3FB"/>
<ellipse rx="9.09115" ry="9.03567" transform="matrix(0.994389 0.105784 -0.107102 0.994248 186.453 90.4007)" fill="#F6F3FB"/>
<ellipse rx="9.09116" ry="9.03567" transform="matrix(0.994389 0.105784 -0.107102 0.994248 181.391 137.392)" fill="#F6F3FB"/>
<ellipse rx="9.09117" ry="9.03567" transform="matrix(0.994389 0.105783 -0.107102 0.994248 176.329 184.384)" fill="#F6F3FB"/>
<ellipse rx="9.09115" ry="9.03567" transform="matrix(0.994389 0.105784 -0.107102 0.994248 171.266 231.376)" fill="#F6F3FB"/>
<ellipse rx="9.09117" ry="9.03567" transform="matrix(0.994389 0.105783 -0.107102 0.994248 166.205 278.367)" fill="#F6F3FB"/>
<ellipse rx="9.09115" ry="9.03567" transform="matrix(0.994389 0.105784 -0.107102 0.994248 210.04 21.6146)" fill="#F6F3FB"/>
<ellipse rx="9.09115" ry="9.03568" transform="matrix(0.994389 0.105784 -0.107102 0.994248 204.978 68.6063)" fill="#F6F3FB"/>
<ellipse rx="9.09115" ry="9.03568" transform="matrix(0.994389 0.105784 -0.107102 0.994248 199.916 115.598)" fill="#F6F3FB"/>
<ellipse rx="9.09116" ry="9.03567" transform="matrix(0.994389 0.105784 -0.107102 0.994248 194.854 162.59)" fill="#F6F3FB"/>
<ellipse rx="9.09117" ry="9.03567" transform="matrix(0.994389 0.105783 -0.107102 0.994248 189.792 209.581)" fill="#F6F3FB"/>
<ellipse rx="9.09116" ry="9.03566" transform="matrix(0.994389 0.105783 -0.107102 0.994248 184.73 256.573)" fill="#F6F3FB"/>
<ellipse rx="9.09117" ry="9.03567" transform="matrix(0.994389 0.105783 -0.107102 0.994248 220.026 46.442)" fill="#F6F3FB"/>
<ellipse rx="9.09116" ry="9.03568" transform="matrix(0.994389 0.105784 -0.107102 0.994248 214.964 93.4337)" fill="#F6F3FB"/>
<ellipse rx="9.09118" ry="9.03567" transform="matrix(0.994389 0.105783 -0.107102 0.994248 209.902 140.425)" fill="#F6F3FB"/>
<ellipse rx="9.09115" ry="9.03567" transform="matrix(0.994389 0.105784 -0.107102 0.994248 204.84 187.417)" fill="#F6F3FB"/>
<ellipse rx="9.09118" ry="9.03567" transform="matrix(0.994389 0.105783 -0.107102 0.994248 199.778 234.409)" fill="#F6F3FB"/>
<ellipse rx="9.09115" ry="9.03568" transform="matrix(0.994389 0.105784 -0.107102 0.994248 194.716 281.4)" fill="#F6F3FB"/>
<ellipse rx="9.09115" ry="9.03567" transform="matrix(0.994389 0.105784 -0.107102 0.994248 238.551 24.6475)" fill="#F6F3FB"/>
<ellipse rx="9.09116" ry="9.03567" transform="matrix(0.994389 0.105784 -0.107102 0.994248 233.489 71.6392)" fill="#F6F3FB"/>
<ellipse rx="9.09115" ry="9.03568" transform="matrix(0.994389 0.105784 -0.107102 0.994248 228.427 118.631)" fill="#F6F3FB"/>
<ellipse rx="9.09117" ry="9.03567" transform="matrix(0.994389 0.105783 -0.107102 0.994248 223.365 165.623)" fill="#F6F3FB"/>
<ellipse rx="9.09118" ry="9.03567" transform="matrix(0.994389 0.105783 -0.107102 0.994248 218.303 212.614)" fill="#F6F3FB"/>
<ellipse rx="9.09115" ry="9.03569" transform="matrix(0.994389 0.105784 -0.107102 0.994248 213.241 259.606)" fill="#F6F3FB"/>
<ellipse rx="9.09115" ry="9.03567" transform="matrix(0.994389 0.105784 -0.107102 0.994248 248.537 49.4749)" fill="#F6F3FB"/>
<ellipse rx="9.09116" ry="9.03567" transform="matrix(0.994389 0.105784 -0.107102 0.994248 243.475 96.4666)" fill="#F6F3FB"/>
<ellipse rx="9.09117" ry="9.03567" transform="matrix(0.994389 0.105783 -0.107102 0.994248 238.413 143.458)" fill="#F6F3FB"/>
<ellipse rx="9.09118" ry="9.03567" transform="matrix(0.994389 0.105783 -0.107102 0.994248 233.351 190.45)" fill="#F6F3FB"/>
<ellipse rx="9.09115" ry="9.03567" transform="matrix(0.994389 0.105784 -0.107102 0.994248 228.289 237.442)" fill="#F6F3FB"/>
<ellipse rx="9.09115" ry="9.03568" transform="matrix(0.994389 0.105784 -0.107102 0.994248 223.227 284.433)" fill="#F6F3FB"/>
<ellipse rx="9.09116" ry="9.03567" transform="matrix(0.994389 0.105784 -0.107102 0.994248 267.062 27.6807)" fill="#F6F3FB"/>
<ellipse rx="9.09119" ry="9.03567" transform="matrix(0.994389 0.105783 -0.107102 0.994248 262 74.6722)" fill="#F6F3FB"/>
<ellipse rx="9.09113" ry="9.03567" transform="matrix(0.994389 0.105784 -0.107102 0.994248 256.938 121.664)" fill="#F6F3FB"/>
<ellipse rx="9.09116" ry="9.03567" transform="matrix(0.994389 0.105783 -0.107102 0.994248 251.876 168.656)" fill="#F6F3FB"/>
<ellipse rx="9.09114" ry="9.03567" transform="matrix(0.994389 0.105784 -0.107102 0.994248 246.814 215.647)" fill="#F6F3FB"/>
<ellipse rx="9.09116" ry="9.03569" transform="matrix(0.994389 0.105784 -0.107102 0.994248 241.752 262.639)" fill="#F6F3FB"/>
<ellipse rx="9.09119" ry="9.03567" transform="matrix(0.994389 0.105783 -0.107102 0.994248 282.11 5.51644)" fill="#F6F3FB"/>
<ellipse rx="9.09115" ry="9.03567" transform="matrix(0.994389 0.105784 -0.107102 0.994248 277.048 52.5081)" fill="#F6F3FB"/>
<ellipse rx="9.09115" ry="9.03568" transform="matrix(0.994389 0.105784 -0.107102 0.994248 271.986 99.4998)" fill="#F6F3FB"/>
<ellipse rx="9.09116" ry="9.03567" transform="matrix(0.994389 0.105783 -0.107102 0.994248 266.924 146.492)" fill="#F6F3FB"/>
<ellipse rx="9.09119" ry="9.03567" transform="matrix(0.994389 0.105783 -0.107102 0.994248 261.862 193.483)" fill="#F6F3FB"/>
<ellipse rx="9.09116" ry="9.03569" transform="matrix(0.994389 0.105784 -0.107102 0.994248 256.8 240.475)" fill="#F6F3FB"/>
<ellipse rx="9.09115" ry="9.03568" transform="matrix(0.994389 0.105784 -0.107102 0.994248 251.738 287.466)" fill="#F6F3FB"/>
<ellipse rx="9.09116" ry="9.03568" transform="matrix(0.994389 0.105784 -0.107102 0.994248 285.449 124.697)" fill="#F6F3FB"/>
<ellipse rx="9.09115" ry="9.03567" transform="matrix(0.994389 0.105784 -0.107102 0.994248 280.387 171.689)" fill="#F6F3FB"/>
<ellipse rx="9.09116" ry="9.03568" transform="matrix(0.994389 0.105784 -0.107102 0.994248 275.325 218.68)" fill="#F6F3FB"/>
<ellipse rx="9.09119" ry="9.03567" transform="matrix(0.994389 0.105783 -0.107102 0.994248 270.263 265.672)" fill="#F6F3FB"/>
<ellipse rx="9.09116" ry="9.03567" transform="matrix(0.994389 0.105784 -0.107102 0.994248 285.311 243.508)" fill="#F6F3FB"/>
<ellipse rx="9.09116" ry="9.03565" transform="matrix(0.994389 0.105783 -0.107102 0.994248 280.249 290.499)" fill="#F6F3FB"/>
<g filter="url(#filter0_d)">
<path fill-rule="evenodd" clip-rule="evenodd" d="M202.654 42.9191C200.512 42.1388 198.956 40.1781 198.956 37.8975V33.9656C198.956 31.2042 196.717 28.9656 193.956 28.9656H183.594C180.833 28.9656 178.594 31.2041 178.594 33.9656V37.9475C178.594 40.2215 177.047 42.1783 174.913 42.9631C173.918 43.3289 172.942 43.7327 171.986 44.1728C169.93 45.1197 167.465 44.8327 165.859 43.2369L163.282 40.6757C161.332 38.7379 158.183 38.7379 156.233 40.6757L148.928 47.9346C146.961 49.8897 146.961 53.0726 148.928 55.0278L151.428 57.5118C153.049 59.123 153.34 61.6156 152.377 63.6887C151.974 64.557 151.601 65.4421 151.261 66.3427C150.461 68.4539 148.515 69.9797 146.257 69.9797H142.649C139.888 69.9797 137.649 72.2183 137.649 74.9797V85.2141C137.649 87.9755 139.888 90.2141 142.649 90.2141H146.045C148.33 90.2141 150.294 91.777 151.074 93.9254C151.42 94.8799 151.802 95.8175 152.219 96.7366C153.153 98.8009 152.852 101.267 151.245 102.864L148.928 105.166C146.961 107.121 146.961 110.304 148.928 112.259L156.233 119.518C158.183 121.456 161.332 121.456 163.282 119.518L165.464 117.349C167.084 115.74 169.575 115.463 171.64 116.438C172.706 116.941 173.798 117.399 174.913 117.809C177.047 118.594 178.594 120.55 178.594 122.824V125.137C178.594 127.899 180.833 130.137 183.594 130.137H193.956C196.717 130.137 198.956 127.899 198.956 125.137V122.874C198.956 120.594 200.512 118.633 202.654 117.853C203.691 117.476 204.707 117.057 205.701 116.599C207.757 115.652 210.223 115.939 211.828 117.535L213.824 119.518C215.774 121.456 218.923 121.456 220.873 119.518L228.177 112.259C230.145 110.304 230.145 107.121 228.177 105.166L226.259 103.26C224.638 101.649 224.347 99.1564 225.31 97.0833C225.788 96.0536 226.224 95.0002 226.614 93.9254C227.394 91.777 229.357 90.2141 231.643 90.2141H234.457C237.218 90.2141 239.457 87.9755 239.457 85.2141V74.9797C239.457 72.2183 237.218 69.9797 234.457 69.9797H231.43C229.173 69.9797 227.226 68.4539 226.427 66.3427C226.041 65.3229 225.614 64.323 225.148 63.3449C224.157 61.2632 224.438 58.7438 226.073 57.1186L228.177 55.0278C230.145 53.0726 230.145 49.8897 228.177 47.9346L220.873 40.6757C218.923 38.7379 215.774 38.7379 213.824 40.6757L211.43 43.0544C209.838 44.6364 207.4 44.9333 205.352 44.0141C204.47 43.6179 203.57 43.2524 202.654 42.9191Z" fill="#607697"/>
</g>
<g filter="url(#filter1_d)">
<ellipse cx="188.844" cy="79.8079" rx="29.6696" ry="29.4844" fill="#9EB6D9"/>
</g>
<g filter="url(#filter2_d)">
<ellipse rx="40.5606" ry="40.313" transform="matrix(0.994389 0.105784 -0.107102 0.994248 209.642 225.962)" fill="#859DBF"/>
</g>
<g filter="url(#filter3_d)">
<path fill-rule="evenodd" clip-rule="evenodd" d="M43.2688 143.477C43.083 139.964 40.3113 137.168 36.837 136.615C34.1381 136.185 31.4841 135.612 28.8836 134.904C25.482 133.978 21.8006 135.393 20.1934 138.529L16.9756 144.807C15.2195 148.233 11.0244 149.596 7.58723 147.856L2.97514 145.522C-0.488346 143.769 -1.86643 139.534 -0.0969009 136.081L3.14302 129.76C4.74884 126.627 3.7518 122.813 1.0181 120.591C-1.04562 118.914 -3.01966 117.13 -4.8951 115.246C-7.37918 112.751 -11.2699 112.141 -14.2258 114.049L-20.4075 118.04C-23.6422 120.128 -27.958 119.21 -30.0659 115.986L-32.8617 111.709C-34.9858 108.46 -34.0621 104.104 -30.8027 102L-24.6183 98.0076C-21.6598 96.0976 -20.618 92.2971 -21.8708 89.0041C-22.7876 86.5942 -23.584 84.1232 -24.2524 81.5978C-25.1567 78.1808 -28.2366 75.694 -31.766 75.8784L-37.7521 76.1911C-41.6129 76.3928 -44.9082 73.4267 -45.1124 69.5661L-45.3807 64.4948C-45.5849 60.6342 -42.6207 57.341 -38.76 57.1393L-32.6518 56.8202C-29.1432 56.6369 -26.3518 53.8733 -25.7912 50.4054C-25.3783 47.8514 -24.835 45.3379 -24.168 42.8723C-23.2437 39.4551 -24.6771 35.7566 -27.8371 34.1572L-34.5719 30.7485C-38.0354 28.9954 -39.4135 24.7605 -37.6439 21.3079L-35.3147 16.7634C-33.5587 13.337 -29.3635 11.9745 -25.9264 13.7142L-19.0046 17.2176C-15.8795 18.7994 -12.0944 17.8053 -9.88176 15.0929C-8.244 13.0852 -6.50346 11.1619 -4.66756 9.33132C-2.16727 6.83826 -1.56856 2.92975 -3.50173 -0.0274391L-7.63117 -6.34428C-9.75523 -9.59346 -8.83156 -13.9486 -5.57213 -16.0529L-1.23177 -18.8549C2.00289 -20.9432 6.31868 -20.0253 8.42659 -16.8008L12.5964 -10.4223C14.5199 -7.47981 18.315 -6.45273 21.595 -7.71272C24.0273 -8.64704 26.5224 -9.46068 29.0733 -10.1459C32.4701 -11.0583 34.9315 -14.1272 34.7457 -17.6399L34.3497 -25.1264C34.1455 -28.987 37.1096 -32.2801 40.9704 -32.4818L46.161 -32.753C50.0217 -32.9547 53.317 -29.9886 53.5212 -26.128L53.9109 -18.7625C54.0978 -15.2292 56.8995 -12.4248 60.398 -11.893C63.0346 -11.4922 65.629 -10.9552 68.1733 -10.2891C71.5564 -9.40331 75.1951 -10.8236 76.7894 -13.9343L80.1797 -20.5492C81.9358 -23.9756 86.1309 -25.3381 89.5681 -23.5984L94.1802 -21.264C97.6436 -19.511 99.0217 -15.2761 97.2522 -11.8235L93.9921 -5.4626C92.3735 -2.30443 93.4 1.53998 96.1771 3.75303C98.2573 5.41081 100.249 7.17637 102.142 9.04173C104.63 11.4926 108.487 12.0774 111.419 10.1843L117.563 6.21807C120.798 4.12984 125.113 5.04772 127.221 8.27221L130.017 12.549C132.141 15.7982 131.218 20.1534 127.958 22.2576L122.094 26.0437C119.111 27.9692 118.079 31.8122 119.375 35.1193C120.339 37.5805 121.177 40.1068 121.881 42.6907C122.804 46.0811 125.872 48.5387 129.381 48.3554L134.908 48.0666C138.768 47.8649 142.064 50.8311 142.268 54.6917L142.536 59.763C142.74 63.6236 139.776 66.9168 135.916 67.1184L130.51 67.4008C126.981 67.5852 124.18 70.3792 123.642 73.8716C123.23 76.542 122.675 79.1688 121.986 81.7437C121.073 85.1559 122.507 88.8427 125.661 90.4386L131.727 93.5093C135.191 95.2623 136.569 99.4972 134.799 102.95L132.47 107.494C130.714 110.921 126.519 112.283 123.082 110.544L116.908 107.419C113.776 105.834 109.983 106.836 107.773 109.56C106.058 111.673 104.229 113.694 102.295 115.612C99.7832 118.104 99.1775 122.022 101.115 124.985L104.787 130.602C106.911 133.851 105.987 138.206 102.728 140.311L98.3872 143.113C95.1526 145.201 90.8368 144.283 88.7289 141.058L84.9677 135.305C83.0483 132.369 79.2645 131.339 75.9882 132.588C73.4488 133.556 70.8412 134.392 68.1733 135.088C64.7502 135.982 62.2599 139.063 62.4468 142.596L62.8059 149.384C63.0101 153.245 60.0459 156.538 56.1852 156.739L50.9946 157.011C47.1339 157.212 43.8386 154.246 43.6343 150.386L43.2688 143.477ZM48.6402 121.465C80.4485 121.465 106.234 95.8408 106.234 64.2311C106.234 32.6214 80.4485 6.99672 48.6402 6.99672C16.8319 6.99672 -8.95385 32.6214 -8.95385 64.2311C-8.95385 95.8408 16.8319 121.465 48.6402 121.465Z" fill="#5C6996"/>
</g>
<g filter="url(#filter4_d)">
<path fill-rule="evenodd" clip-rule="evenodd" d="M201.973 302.212C201.946 298.694 199.303 295.778 195.858 295.07C193.181 294.521 190.555 293.83 187.989 293.007C184.633 291.93 180.891 293.179 179.144 296.241L175.646 302.369C173.737 305.714 169.485 306.888 166.13 304.997L161.628 302.459C158.247 300.554 157.061 296.262 158.985 292.891L162.507 286.721C164.252 283.662 163.428 279.808 160.797 277.467C158.812 275.699 156.92 273.828 155.131 271.863C152.762 269.26 148.903 268.477 145.864 270.252L139.508 273.963C136.183 275.905 131.913 274.796 129.953 271.481L127.353 267.084C125.377 263.743 126.497 259.433 129.848 257.476L136.206 253.763C139.248 251.987 140.46 248.237 139.357 244.891C138.55 242.443 137.866 239.939 137.312 237.387C136.563 233.933 133.598 231.311 130.064 231.338L124.07 231.384C120.204 231.413 117.046 228.303 117.016 224.437L116.977 219.359C116.947 215.493 120.057 212.336 123.922 212.306L130.039 212.259C133.552 212.233 136.466 209.596 137.182 206.157C137.71 203.624 138.366 201.137 139.144 198.704C140.221 195.331 138.956 191.572 135.871 189.834L129.297 186.128C125.916 184.223 124.731 179.931 126.654 176.56L129.186 172.124C131.095 168.78 135.347 167.605 138.703 169.496L145.46 173.305C148.51 175.024 152.336 174.2 154.669 171.589C156.396 169.656 158.221 167.812 160.138 166.065C162.748 163.686 163.523 159.808 161.725 156.768L157.885 150.274C155.909 146.933 157.029 142.623 160.38 140.666L164.842 138.06C168.168 136.118 172.438 137.228 174.398 140.543L178.276 147.101C180.065 150.126 183.809 151.321 187.143 150.209C189.615 149.384 192.144 148.682 194.724 148.111C198.158 147.351 200.756 144.395 200.729 140.877L200.671 133.381C200.641 129.515 203.751 126.357 207.617 126.328L212.814 126.288C216.68 126.259 219.838 129.369 219.868 133.235L219.925 140.61C219.952 144.148 222.625 147.075 226.096 147.762C228.712 148.28 231.279 148.932 233.791 149.711C237.131 150.746 240.83 149.489 242.563 146.453L246.248 139.996C248.157 136.651 252.409 135.477 255.764 137.368L260.267 139.905C263.648 141.811 264.833 146.103 262.91 149.474L259.366 155.682C257.606 158.765 258.459 162.652 261.133 164.986C263.136 166.735 265.046 168.588 266.854 170.536C269.228 173.095 273.055 173.851 276.069 172.09L282.386 168.402C285.712 166.46 289.982 167.569 291.942 170.884L294.542 175.281C296.517 178.622 295.398 182.932 292.047 184.889L286.017 188.409C282.951 190.2 281.747 193.993 282.892 197.355C283.744 199.857 284.467 202.418 285.054 205.03C285.823 208.458 288.777 211.05 292.29 211.023L297.825 210.981C301.691 210.952 304.849 214.062 304.879 217.928L304.918 223.006C304.948 226.872 301.838 230.029 297.972 230.059L292.559 230.1C289.025 230.127 286.102 232.793 285.406 236.258C284.874 238.908 284.201 241.507 283.397 244.048C282.33 247.416 283.597 251.164 286.675 252.899L292.597 256.236C295.978 258.142 297.164 262.434 295.24 265.805L292.708 270.241C290.799 273.585 286.547 274.759 283.192 272.868L277.165 269.472C274.108 267.748 270.274 268.58 267.943 271.203C266.134 273.238 264.216 275.175 262.198 277.005C259.576 279.383 258.794 283.27 260.595 286.317L264.01 292.091C265.985 295.432 264.866 299.742 261.515 301.698L257.052 304.304C253.727 306.246 249.457 305.137 247.497 301.822L243.999 295.906C242.214 292.888 238.48 291.69 235.151 292.792C232.571 293.646 229.928 294.365 227.231 294.942C223.771 295.682 221.144 298.649 221.172 302.187L221.224 308.984C221.254 312.85 218.144 316.007 214.278 316.037L209.08 316.076C205.214 316.106 202.056 312.996 202.027 309.13L201.973 302.212ZM208.332 280.462C240.109 281.879 267.025 257.43 268.451 225.852C269.877 194.274 245.274 167.526 213.497 166.108C181.721 164.691 154.805 189.141 153.379 220.719C151.952 252.297 176.556 279.045 208.332 280.462Z" fill="#9EB6D9"/>
</g>
<g filter="url(#filter5_i)">
<path fill-rule="evenodd" clip-rule="evenodd" d="M14.5974 61.1228C32.812 20.85 88.0409 13.8761 132.396 15.0147C167.876 15.9255 193.19 42.5677 219.358 66.379C245.894 90.5263 278.464 113.167 279.584 148.949C280.816 188.295 256.337 223.173 225.022 247.296C190.849 273.621 146.375 299.286 106.859 282.007C69.2215 265.55 75.7528 212.895 59.9789 175.13C43.3922 135.42 -3.15937 100.383 14.5974 61.1228Z" fill="white" fill-opacity="0.01"/>
</g>
</g>
</g>
<defs>
<filter id="filter0_d" x="133.649" y="28.9656" width="109.808" height="109.172" filterUnits="userSpaceOnUse" color-interpolation-filters="sRGB">
<feFlood flood-opacity="0" result="BackgroundImageFix"/>
<feColorMatrix in="SourceAlpha" type="matrix" values="0 0 0 0 0 0 0 0 0 0 0 0 0 0 0 0 0 0 127 0"/>
<feOffset dy="4"/>
<feGaussianBlur stdDeviation="2"/>
<feColorMatrix type="matrix" values="0 0 0 0 0 0 0 0 0 0 0 0 0 0 0 0 0 0 0.25 0"/>
<feBlend mode="normal" in2="BackgroundImageFix" result="effect1_dropShadow"/>
<feBlend mode="normal" in="SourceGraphic" in2="effect1_dropShadow" result="shape"/>
</filter>
<filter id="filter1_d" x="155.174" y="50.3235" width="67.3393" height="66.9688" filterUnits="userSpaceOnUse" color-interpolation-filters="sRGB">
<feFlood flood-opacity="0" result="BackgroundImageFix"/>
<feColorMatrix in="SourceAlpha" type="matrix" values="0 0 0 0 0 0 0 0 0 0 0 0 0 0 0 0 0 0 127 0"/>
<feOffset dy="4"/>
<feGaussianBlur stdDeviation="2"/>
<feColorMatrix type="matrix" values="0 0 0 0 0 0 0 0 0 0 0 0 0 0 0 0 0 0 0.25 0"/>
<feBlend mode="normal" in2="BackgroundImageFix" result="effect1_dropShadow"/>
<feBlend mode="normal" in="SourceGraphic" in2="effect1_dropShadow" result="shape"/>
</filter>
<filter id="filter2_d" x="165.076" y="185.649" width="89.1336" height="88.627" filterUnits="userSpaceOnUse" color-interpolation-filters="sRGB">
<feFlood flood-opacity="0" result="BackgroundImageFix"/>
<feColorMatrix in="SourceAlpha" type="matrix" values="0 0 0 0 0 0 0 0 0 0 0 0 0 0 0 0 0 0 127 0"/>
<feOffset dy="4"/>
<feGaussianBlur stdDeviation="2"/>
<feColorMatrix type="matrix" values="0 0 0 0 0 0 0 0 0 0 0 0 0 0 0 0 0 0 0.25 0"/>
<feBlend mode="normal" in2="BackgroundImageFix" result="effect1_dropShadow"/>
<feBlend mode="normal" in="SourceGraphic" in2="effect1_dropShadow" result="shape"/>
</filter>
<filter id="filter3_d" x="-49.3906" y="-32.7627" width="195.937" height="197.783" filterUnits="userSpaceOnUse" color-interpolation-filters="sRGB">
<feFlood flood-opacity="0" result="BackgroundImageFix"/>
<feColorMatrix in="SourceAlpha" type="matrix" values="0 0 0 0 0 0 0 0 0 0 0 0 0 0 0 0 0 0 127 0"/>
<feOffset dy="4"/>
<feGaussianBlur stdDeviation="2"/>
<feColorMatrix type="matrix" values="0 0 0 0 0 0 0 0 0 0 0 0 0 0 0 0 0 0 0.25 0"/>
<feBlend mode="normal" in2="BackgroundImageFix" result="effect1_dropShadow"/>
<feBlend mode="normal" in="SourceGraphic" in2="effect1_dropShadow" result="shape"/>
</filter>
<filter id="filter4_d" x="112.976" y="126.288" width="195.942" height="197.789" filterUnits="userSpaceOnUse" color-interpolation-filters="sRGB">
<feFlood flood-opacity="0" result="BackgroundImageFix"/>
<feColorMatrix in="SourceAlpha" type="matrix" values="0 0 0 0 0 0 0 0 0 0 0 0 0 0 0 0 0 0 127 0"/>
<feOffset dy="4"/>
<feGaussianBlur stdDeviation="2"/>
<feColorMatrix type="matrix" values="0 0 0 0 0 0 0 0 0 0 0 0 0 0 0 0 0 0 0.25 0"/>
<feBlend mode="normal" in2="BackgroundImageFix" result="effect1_dropShadow"/>
<feBlend mode="normal" in="SourceGraphic" in2="effect1_dropShadow" result="shape"/>
</filter>
<filter id="filter5_i" x="10.6244" y="14.9023" width="269.004" height="276.728" filterUnits="userSpaceOnUse" color-interpolation-filters="sRGB">
<feFlood flood-opacity="0" result="BackgroundImageFix"/>
<feBlend mode="normal" in="SourceGraphic" in2="BackgroundImageFix" result="shape"/>
<feColorMatrix in="SourceAlpha" type="matrix" values="0 0 0 0 0 0 0 0 0 0 0 0 0 0 0 0 0 0 127 0" result="hardAlpha"/>
<feOffset dy="4"/>
<feGaussianBlur stdDeviation="7.5"/>
<feComposite in2="hardAlpha" operator="arithmetic" k2="-1" k3="1"/>
<feColorMatrix type="matrix" values="0 0 0 0 0 0 0 0 0 0 0 0 0 0 0 0 0 0 0.5 0"/>
<feBlend mode="normal" in2="shape" result="effect1_innerShadow"/>
</filter>
<clipPath id="clip0">
<rect width="297.86" height="296" fill="white" transform="translate(0.00183105)"/>
</clipPath>
</defs>
</svg>
