<svg width="48" height="48" viewBox="0 0 48 48" fill="none" xmlns="http://www.w3.org/2000/svg">
<path d="M16.9807 14.25C18.7658 14.25 20.0954 14.6778 20.9694 15.5335C21.8434 16.3891 22.2804 17.6535 22.2804 19.3268C22.2804 20.2204 22.0666 21.0095 21.6389 21.694C21.2112 22.3595 20.5789 22.8824 19.7421 23.2627C18.9053 23.6239 17.8732 23.8046 16.6459 23.8046L16.7575 22.5211C17.334 22.5211 17.9941 22.6067 18.7379 22.7778C19.4818 22.9299 20.1977 23.2151 20.8857 23.6335C21.5924 24.0327 22.1688 24.6032 22.6151 25.3447C23.08 26.0673 23.3125 26.9989 23.3125 28.1398C23.3125 29.3947 23.1079 30.4215 22.6988 31.2201C22.3083 32.0187 21.7876 32.6366 21.1368 33.0739C20.4859 33.5113 19.7886 33.8155 19.0448 33.9866C18.3009 34.1387 17.585 34.2148 16.897 34.2148H9.9515C9.46801 34.2148 9.05891 34.0532 8.72419 33.7299C8.40806 33.3877 8.25 32.9694 8.25 32.475V15.9898C8.25 15.4954 8.40806 15.0866 8.72419 14.7634C9.05891 14.4211 9.46801 14.25 9.9515 14.25H16.9807ZM16.4786 17.6155H11.5135L11.8761 17.1592V22.3215L11.5414 22.0648H16.5623C17.1015 22.0648 17.585 21.8842 18.0127 21.5229C18.4404 21.1616 18.6543 20.6387 18.6543 19.9542C18.6543 19.1366 18.4497 18.5472 18.0406 18.1859C17.6501 17.8056 17.1294 17.6155 16.4786 17.6155ZM16.7017 25.4303H11.6251L11.8761 25.2021V31.2201L11.5972 30.9349H16.897C17.7524 30.9349 18.4311 30.7067 18.9332 30.2504C19.4353 29.775 19.6863 29.0715 19.6863 28.1398C19.6863 27.2842 19.519 26.6662 19.1842 26.2859C18.8495 25.9056 18.4497 25.668 17.9848 25.5729C17.5199 25.4778 17.0922 25.4303 16.7017 25.4303Z" fill="#FFFDFB"/>
<path d="M33.2508 34.5C31.6702 34.5 30.2941 34.1673 29.1226 33.5018C27.9697 32.8173 27.0771 31.8951 26.4448 30.7352C25.8312 29.5754 25.5243 28.2634 25.5243 26.7993C25.5243 25.088 25.8591 23.6335 26.5285 22.4356C27.2165 21.2187 28.1091 20.287 29.2063 19.6405C30.3034 18.994 31.4656 18.6708 32.693 18.6708C33.6413 18.6708 34.5339 18.8704 35.3707 19.2697C36.2261 19.669 36.9792 20.2204 37.6301 20.9239C38.2809 21.6085 38.7923 22.407 39.1642 23.3197C39.5547 24.2324 39.75 25.2021 39.75 26.2289C39.7314 26.6852 39.5547 27.056 39.22 27.3412C38.8853 27.6264 38.4948 27.769 38.0485 27.769H27.3932L26.5564 24.9169H36.7933L36.1796 25.4873V24.7173C36.1424 24.1658 35.9472 23.6715 35.5939 23.2342C35.2592 22.7968 34.8315 22.4546 34.3108 22.2074C33.8087 21.9412 33.2694 21.8081 32.693 21.8081C32.1351 21.8081 31.6144 21.8842 31.1309 22.0363C30.6474 22.1884 30.229 22.4451 29.8757 22.8063C29.5224 23.1676 29.2435 23.6525 29.0389 24.2609C28.8344 24.8694 28.7321 25.6394 28.7321 26.5711C28.7321 27.5979 28.9366 28.4725 29.3457 29.1951C29.7734 29.8986 30.3127 30.4405 30.9636 30.8208C31.633 31.182 32.3396 31.3627 33.0835 31.3627C33.7715 31.3627 34.3201 31.3056 34.7292 31.1915C35.1383 31.0775 35.4637 30.9444 35.7054 30.7923C35.9658 30.6211 36.1982 30.4785 36.4028 30.3644C36.7375 30.1933 37.0536 30.1077 37.3512 30.1077C37.7603 30.1077 38.095 30.2504 38.3553 30.5356C38.6343 30.8208 38.7737 31.1535 38.7737 31.5338C38.7737 32.0472 38.5134 32.513 37.9927 32.9313C37.5092 33.3496 36.8305 33.7204 35.9565 34.0437C35.0825 34.3479 34.1806 34.5 33.2508 34.5Z" fill="#FFFDFB"/>
</svg>
