<svg width="48" height="48" viewBox="0 0 48 48" fill="none" xmlns="http://www.w3.org/2000/svg">
<path fill-rule="evenodd" clip-rule="evenodd" d="M8.25 14.25C8.25 10.9363 10.9363 8.25 14.25 8.25H33.75C37.0637 8.25 39.75 10.9363 39.75 14.25V33.75C39.75 37.0637 37.0637 39.75 33.75 39.75H14.25C10.9363 39.75 8.25 37.0637 8.25 33.75V14.25ZM30.75 25.125C30.75 29.06 27.56 32.25 23.625 32.25C19.69 32.25 16.5 29.06 16.5 25.125C16.5 21.19 19.69 18 23.625 18C27.56 18 30.75 21.19 30.75 25.125ZM31.875 18.75C33.3247 18.75 34.5 17.5747 34.5 16.125C34.5 14.6753 33.3247 13.5 31.875 13.5C30.4253 13.5 29.25 14.6753 29.25 16.125C29.25 17.5747 30.4253 18.75 31.875 18.75Z" fill="#FFFDFB"/>
</svg>
