<svg id="Camada_1" data-name="Camada 1" xmlns="http://www.w3.org/2000/svg" xmlns:xlink="http://www.w3.org/1999/xlink" viewBox="0 0 1599.32 612.65"><defs><style>.cls-1{fill:none;}.cls-2{clip-path:url(#clip-path);}.cls-3{fill:#fff;}.cls-4{fill:#1f7580;}.cls-5{opacity:0.75;}.cls-6{clip-path:url(#clip-path-4);}.cls-7{fill:#1d1d1b;}.cls-8{fill:#22183c;}.cls-9{fill:#1b7580;}.cls-10{fill:#484c4d;}</style><clipPath id="clip-path"><rect class="cls-1" x="104.82" y="89.72" width="433.3" height="433.21"/></clipPath><clipPath id="clip-path-4"><rect class="cls-1" x="285.63" y="233.88" width="252.39" height="145.72"/></clipPath></defs><g id="Logo"><g class="cls-2"><g class="cls-2"><g class="cls-2"><path class="cls-3" d="M505.07,522.93H138a33,33,0,0,1-33-33V122.77a33,33,0,0,1,33-33H505.07a33,33,0,0,1,33,33.05V489.88a33,33,0,0,1-33,33"/><polygon class="cls-4" points="538.02 378.77 538.02 233.88 412.55 306.33 538.02 378.77"/><path class="cls-4" d="M285.63,379.6h0V234a1.7,1.7,0,0,1,.85-1.47L524.05,95.4a32.06,32.06,0,0,0-18.27-5.68H137.05A32.24,32.24,0,0,0,104.82,122V490.69a32.23,32.23,0,0,0,32.23,32.24H505.78a32.06,32.06,0,0,0,18.27-5.68Z"/><g class="cls-5"><g class="cls-6"><polygon class="cls-7" points="538.02 233.88 538.02 247.56 285.63 379.6 538.02 233.88"/></g></g></g></g></g></g><path class="cls-8" d="M743.7,211.3h-66v44.16h58.49v28.29H677.75v66.19h-39.6V183.13H747.79Z"/><path class="cls-8" d="M853.15,226.28a54.21,54.21,0,0,1,21.36,23.65q7.34,15.29,7.34,35.74,0,21.3-7.4,36.64a53.46,53.46,0,0,1-21.36,23.53q-14,8.19-33.34,8.19T786.29,346a52.35,52.35,0,0,1-21.3-23.4q-7.34-15.35-7.34-36.65,0-20.32,7.4-35.68a55.21,55.21,0,0,1,21.42-23.83q14-8.49,33.28-8.49T853.15,226.28Zm-50.67,29.3q-5.6,9.63-5.6,30.33,0,21.07,5.54,30.63t17.33,9.57q11.79,0,17.33-9.63t5.54-30.81q0-20.58-5.6-30.15T819.75,246Q808.08,246,802.48,255.58Z"/><path class="cls-8" d="M956.61,309.74q0,7.47,4.27,10.89t12.22,3.43a47.42,47.42,0,0,0,18-3.85l9.15,25.39q-16,8.43-36.95,8.43-22.5,0-33.64-12.93t-11.13-36.05V197.33H880.91v-26h75.7Z"/><path class="cls-8" d="M1096.06,167.37l38,4v178.6h-33.7l-1.92-14.08A44.28,44.28,0,0,1,1083.79,349a41.74,41.74,0,0,1-20.71,5q-15.52,0-26-8.37T1021.32,322q-5.18-15.34-5.17-36.28,0-19.6,6.2-35T1040,226.58q11.49-8.67,27-8.67,17.2,0,29,11.8Zm-34.9,88q-5.78,9.69-5.78,30.51,0,22.27,5.12,31.23t14.62,9q12,0,20.94-14.81V256.18a34,34,0,0,0-8.66-7.82,19.46,19.46,0,0,0-10.11-2.65Q1066.94,245.71,1061.16,255.4Z"/><path class="cls-9" d="M1317.26,166.89l-9.51,19.73,120,74.14V288L1334,346.21l-17.21-25.88,78.23-46-101-59.09-77.74,161.62-29.73-13.59,101.21-210Z"/><path class="cls-10" d="M650.06,421.56q9.6,0,15.73,6.06t6,15.37q0,9.36-6,15.36t-15.73,6.06H633.84V421.56Zm.42,37a14.68,14.68,0,0,0,11-4.41,17.16,17.16,0,0,0,0-22.4,14.68,14.68,0,0,0-11-4.41H640v31.22Z"/><path class="cls-10" d="M685.58,451.86a9.34,9.34,0,0,0,3.43,5.2,9.84,9.84,0,0,0,6.18,2,9.46,9.46,0,0,0,8.27-4.16h6.79a15.13,15.13,0,0,1-5.69,7.34,16.23,16.23,0,0,1-9.37,2.76,15.8,15.8,0,0,1-11.57-4.53,16.57,16.57,0,0,1,0-22.77,15.8,15.8,0,0,1,11.57-4.53,15.58,15.58,0,0,1,11.51,4.53,15.21,15.21,0,0,1,4.59,11.39,19.77,19.77,0,0,1-.24,2.75Zm19.22-5.51a9.33,9.33,0,0,0-3.42-5.2,10.44,10.44,0,0,0-12.37,0,9.34,9.34,0,0,0-3.43,5.2Z"/><path class="cls-10" d="M721.13,461.65a10.1,10.1,0,0,1-3.06-7.65h6.13a4.53,4.53,0,0,0,2.5,4.29,9,9,0,0,0,2.21.73,11.08,11.08,0,0,0,2,.18q6.12,0,6.12-4c0-2.25-2.33-3.57-7-4q-10.77-1-10.77-8.87a8.47,8.47,0,0,1,2.45-6.18q2.93-3,8.57-3t8.87,3.18a9.77,9.77,0,0,1,2.76,7.22h-6.13q0-4.59-5.5-4.59c-3.27,0-4.9,1.13-4.9,3.37q0,2.94,5.2,3.37,6.43.6,9.37,2.69a7.79,7.79,0,0,1,3.18,6.8,8.88,8.88,0,0,1-2.75,6.6q-3.25,3.19-9.49,3.19T721.13,461.65Z"/><path class="cls-10" d="M760,425.84l-4.9,4.9-4.9-4.9,4.9-4.9Zm-8,8h6.12v30.61h-6.12Z"/><path class="cls-10" d="M799.4,463.18a12.91,12.91,0,0,1-4.4,10.23q-4.35,3.84-11.51,3.85-6.91,0-11.32-3.61a12.06,12.06,0,0,1-4.59-9.24h6.18a6.69,6.69,0,0,0,2.81,5.08,11.54,11.54,0,0,0,6.92,2,10.94,10.94,0,0,0,7.16-2.2,7.61,7.61,0,0,0,2.63-6.07v-3.36a15.51,15.51,0,0,1-21.91.12,16.29,16.29,0,0,1,0-22.29,15.52,15.52,0,0,1,21.91.13v-4h6.12Zm-16.21-4.59a10,10,0,0,0,7.28-2.76,10.21,10.21,0,0,0,0-14.07,11,11,0,0,0-14.57,0,10.21,10.21,0,0,0,0,14.07A10,10,0,0,0,783.19,458.59Z"/><path class="cls-10" d="M826.27,433.19a12.52,12.52,0,0,1,9.56,3.92,13.86,13.86,0,0,1,3.61,9.85v17.45h-6.12V447.58a8.58,8.58,0,1,0-17.14,0v16.83h-6.12V433.8h6.12v3.92A12.39,12.39,0,0,1,826.27,433.19Z"/><path class="cls-10" d="M883.85,421.06a9.43,9.43,0,0,1,4,3.47,9.11,9.11,0,0,1,1.4,5,9.79,9.79,0,0,1-2.14,6.32,25.45,25.45,0,0,1-6.4,5.39l21.22,20.56-5.31,3.08-5.71-5.63a18.66,18.66,0,0,1-5.9,4.2,18,18,0,0,1-7.34,1.43,16.34,16.34,0,0,1-7.07-1.48,11.47,11.47,0,0,1-4.85-4.15A11,11,0,0,1,864,453a11.24,11.24,0,0,1,2.06-6.76,23.14,23.14,0,0,1,6.29-5.63,44.31,44.31,0,0,1-3.41-3.82,12.6,12.6,0,0,1-1.85-3.28,10.69,10.69,0,0,1-.61-3.73,9.74,9.74,0,0,1,1.33-5,9.56,9.56,0,0,1,3.91-3.63,13.1,13.1,0,0,1,6.15-1.35A13.52,13.52,0,0,1,883.85,421.06Zm-7.78,23.32a14.46,14.46,0,0,0-4.06,3.81,8,8,0,0,0-1.31,4.48,6.81,6.81,0,0,0,1,3.7,6.69,6.69,0,0,0,2.8,2.48,9.27,9.27,0,0,0,4.11.88,11.4,11.4,0,0,0,4.88-1,13.31,13.31,0,0,0,4-2.94Zm-2-18.38a5.32,5.32,0,0,0-1.42,3.79,7.22,7.22,0,0,0,.4,2.44,8.74,8.74,0,0,0,1.32,2.33,31.93,31.93,0,0,0,2.65,3,16.57,16.57,0,0,0,4.52-3.68,6.57,6.57,0,0,0,1.44-4.16,4.81,4.81,0,0,0-5.11-5.18A5,5,0,0,0,874.12,426Z"/><path class="cls-10" d="M938.68,421.56q9.62,0,15.74,6.06t6,15.37q0,9.36-6,15.36t-15.74,6.06H922.47V421.56Zm.43,37a14.68,14.68,0,0,0,11-4.41,17.16,17.16,0,0,0,0-22.4,14.68,14.68,0,0,0-11-4.41H928.59v31.22Z"/><path class="cls-10" d="M974.21,451.86a9.34,9.34,0,0,0,3.43,5.2,9.84,9.84,0,0,0,6.18,2,9.46,9.46,0,0,0,8.27-4.16h6.79a15.13,15.13,0,0,1-5.69,7.34,16.23,16.23,0,0,1-9.37,2.76,15.8,15.8,0,0,1-11.57-4.53,16.57,16.57,0,0,1,0-22.77,15.8,15.8,0,0,1,11.57-4.53,15.58,15.58,0,0,1,11.51,4.53,15.21,15.21,0,0,1,4.59,11.39,19.77,19.77,0,0,1-.24,2.75Zm19.22-5.51a9.33,9.33,0,0,0-3.42-5.2,10.44,10.44,0,0,0-12.37,0,9.34,9.34,0,0,0-3.43,5.2Z"/><path class="cls-10" d="M1009.76,461.65a10.1,10.1,0,0,1-3.06-7.65h6.13a4.53,4.53,0,0,0,2.5,4.29,9,9,0,0,0,2.21.73,11.08,11.08,0,0,0,2,.18q6.12,0,6.12-4c0-2.25-2.33-3.57-7-4q-10.77-1-10.77-8.87a8.47,8.47,0,0,1,2.45-6.18q2.93-3,8.57-3t8.87,3.18a9.76,9.76,0,0,1,2.75,7.22h-6.12q0-4.59-5.5-4.59c-3.27,0-4.9,1.13-4.9,3.37q0,2.94,5.2,3.37,6.43.6,9.37,2.69a7.79,7.79,0,0,1,3.18,6.8,8.85,8.85,0,0,1-2.76,6.6q-3.24,3.19-9.48,3.19T1009.76,461.65Z"/><path class="cls-10" d="M1045.22,451.86a9.29,9.29,0,0,0,3.43,5.2,9.82,9.82,0,0,0,6.18,2,9.44,9.44,0,0,0,8.26-4.16h6.8a15.15,15.15,0,0,1-5.7,7.34,16.18,16.18,0,0,1-9.36,2.76,15.8,15.8,0,0,1-11.57-4.53,16.57,16.57,0,0,1,0-22.77,15.8,15.8,0,0,1,11.57-4.53,15.61,15.61,0,0,1,11.51,4.53,15.21,15.21,0,0,1,4.59,11.39,20,20,0,0,1-.25,2.75Zm19.22-5.51a9.39,9.39,0,0,0-3.43-5.2,10.42,10.42,0,0,0-12.36,0,9.29,9.29,0,0,0-3.43,5.2Z"/><path class="cls-10" d="M1095.91,433.19a12.48,12.48,0,0,1,9.55,3.92,13.82,13.82,0,0,1,3.62,9.85v17.45H1103V447.58a8.58,8.58,0,1,0-17.15,0v16.83h-6.12V433.8h6.12v3.92A12.41,12.41,0,0,1,1095.91,433.19Z"/><path class="cls-10" d="M1145.74,433.8l-12.24,30.61h-6.74l-12.24-30.61H1121l9.18,23,9.18-23Z"/><path class="cls-10" d="M1166,433.19a15.61,15.61,0,0,1,11.51,4.53,16.41,16.41,0,0,1,0,22.77,16.89,16.89,0,0,1-23,0,16.41,16.41,0,0,1,0-22.77A15.6,15.6,0,0,1,1166,433.19Zm0,25.89a9.63,9.63,0,1,0-7.16-2.81A9.72,9.72,0,0,0,1166,459.08Z"/><path class="cls-10" d="M1191,421.56h6.12v42.85H1191Z"/><path class="cls-10" d="M1235.38,433.8l-12.24,30.61h-6.74l-12.24-30.61h6.43l9.18,23,9.18-23Z"/><path class="cls-10" d="M1250.38,425.84l-4.9,4.9-4.89-4.9,4.89-4.9Zm-8,8h6.12v30.61h-6.12Z"/><path class="cls-10" d="M1294.46,433.19a11.92,11.92,0,0,1,9.12,3.74,13.25,13.25,0,0,1,3.43,9.42v18.06h-6.13V446.35a7.35,7.35,0,1,0-14.68,0v18.06h-6.12V446.35a7.36,7.36,0,1,0-14.7,0v18.06h-6.12V433.8h6.12V437a11.28,11.28,0,0,1,8.88-3.8q6.62,0,9.91,5.2A11.69,11.69,0,0,1,1294.46,433.19Z"/><path class="cls-10" d="M1321.92,451.86a9.33,9.33,0,0,0,3.42,5.2,9.84,9.84,0,0,0,6.18,2,9.45,9.45,0,0,0,8.27-4.16h6.79a15.13,15.13,0,0,1-5.69,7.34,16.23,16.23,0,0,1-9.37,2.76,15.8,15.8,0,0,1-11.57-4.53,16.57,16.57,0,0,1,0-22.77,15.8,15.8,0,0,1,11.57-4.53,15.58,15.58,0,0,1,11.51,4.53,15.21,15.21,0,0,1,4.59,11.39,19.77,19.77,0,0,1-.24,2.75Zm19.21-5.51a9.33,9.33,0,0,0-3.42-5.2,10.44,10.44,0,0,0-12.37,0,9.33,9.33,0,0,0-3.42,5.2Z"/><path class="cls-10" d="M1372.61,433.19a12.52,12.52,0,0,1,9.56,3.92,13.86,13.86,0,0,1,3.61,9.85v17.45h-6.12V447.58a8.58,8.58,0,1,0-17.15,0v16.83h-6.12V433.8h6.12v3.92A12.41,12.41,0,0,1,1372.61,433.19Z"/><path class="cls-10" d="M1405.23,433.8h7.35v5.82h-7.35v24.79h-6.12V439.62h-6.73V433.8h6.73v-6.73l6.12-1.84Z"/><path class="cls-10" d="M1434.2,433.19a15.61,15.61,0,0,1,11.51,4.53,16.41,16.41,0,0,1,0,22.77,16.89,16.89,0,0,1-23,0,16.41,16.41,0,0,1,0-22.77A15.6,15.6,0,0,1,1434.2,433.19Zm0,25.89a9.63,9.63,0,1,0-7.16-2.81A9.72,9.72,0,0,0,1434.2,459.08Z"/></svg>