<svg width="220" height="220" viewBox="0 0 220 220" fill="none" xmlns="http://www.w3.org/2000/svg">
<path fill-rule="evenodd" clip-rule="evenodd" d="M188.775 47.3354C188.764 55.9853 181.743 62.9887 173.093 62.9779C167.231 62.9706 162.125 59.7433 159.446 54.9712C156.755 59.7366 151.641 62.9511 145.779 62.9438C139.916 62.9365 134.81 59.7092 132.131 54.937C129.441 59.7024 124.326 62.917 118.464 62.9097C109.814 62.8989 102.811 55.878 102.821 47.2281C102.832 38.5782 109.853 31.5748 118.503 31.5856C124.365 31.5929 129.472 34.8202 132.15 39.5924C134.841 34.827 139.955 31.6124 145.818 31.6197C151.68 31.627 156.786 34.8543 159.465 39.6264C162.156 34.861 167.27 31.6465 173.132 31.6538C181.782 31.6646 188.786 38.6855 188.775 47.3354ZM173.101 56.7131C178.291 56.7196 182.503 52.5176 182.51 47.3276C182.516 42.1377 178.314 37.9251 173.124 37.9186C167.934 37.9122 163.722 42.1142 163.715 47.3041C163.709 52.4941 167.911 56.7066 173.101 56.7131ZM145.786 56.679C150.976 56.6855 155.189 52.4834 155.195 47.2935C155.202 42.1035 151 37.891 145.81 37.8845C140.62 37.878 136.407 42.0801 136.401 47.27C136.394 52.46 140.596 56.6725 145.786 56.679ZM127.881 47.2594C127.874 52.4493 123.662 56.6514 118.472 56.6449C113.282 56.6384 109.08 52.4259 109.086 47.2359C109.093 42.046 113.305 37.8439 118.495 37.8504C123.685 37.8569 127.887 42.0694 127.881 47.2594Z" fill="black" fill-opacity="0.25"/>
<path fill-rule="evenodd" clip-rule="evenodd" d="M22.189 33.4046C19.5464 38.6934 19.5464 45.5924 19.5464 59.3906V160.129C19.5464 173.927 19.5464 180.826 22.189 186.115C24.6146 190.969 28.5504 194.905 33.4047 197.331C38.6935 199.973 45.5925 199.973 59.3907 199.973H160.129C173.927 199.973 180.826 199.973 186.115 197.331C190.969 194.905 194.905 190.969 197.331 186.115C199.973 180.826 199.973 173.927 199.973 160.129V59.3906C199.973 45.5924 199.973 38.6934 197.331 33.4046C194.905 28.5503 190.969 24.6145 186.115 22.1889C180.826 19.5463 173.927 19.5463 160.129 19.5463H59.3907C45.5925 19.5463 38.6935 19.5463 33.4047 22.1889C28.5504 24.6145 24.6146 28.5503 22.189 33.4046ZM173.786 55.8823C178.976 55.8823 183.184 51.675 183.184 46.485C183.184 41.2951 178.976 37.0878 173.786 37.0878C168.596 37.0878 164.389 41.2951 164.389 46.485C164.389 51.675 168.596 55.8823 173.786 55.8823ZM155.869 46.485C155.869 51.675 151.662 55.8823 146.472 55.8823C141.282 55.8823 137.075 51.675 137.075 46.485C137.075 41.2951 141.282 37.0878 146.472 37.0878C151.662 37.0878 155.869 41.2951 155.869 46.485ZM119.157 55.8823C124.347 55.8823 128.554 51.675 128.554 46.485C128.554 41.2951 124.347 37.0878 119.157 37.0878C113.967 37.0878 109.76 41.2951 109.76 46.485C109.76 51.675 113.967 55.8823 119.157 55.8823Z" fill="#FBFBFF"/>
<path fill-rule="evenodd" clip-rule="evenodd" d="M96.3004 140.592C96.3234 141.03 96.0905 141.441 95.7032 141.647L55.4674 163.041C54.3667 163.626 53 163.208 52.4148 162.108L42.7807 143.989C42.1955 142.888 42.6133 141.521 43.714 140.936L93.3282 114.556C94.0571 114.168 94.9418 114.669 94.985 115.493L96.3004 140.592Z" fill="#3E1B55"/>
<path fill-rule="evenodd" clip-rule="evenodd" d="M66.1813 128.99L96.0762 141.197L96.1325 141.246C96.0869 141.319 96.0327 141.388 95.9709 141.449L64.1095 130.092L66.1813 128.99Z" fill="black" fill-opacity="0.25"/>
<path fill-rule="evenodd" clip-rule="evenodd" d="M94.9299 114.438C94.9069 114 94.6323 113.615 94.2256 113.45L51.974 96.3797C50.8181 95.9127 49.5026 96.4711 49.0356 97.627L41.3483 116.654C40.8813 117.81 41.4397 119.125 42.5956 119.592L66.0409 129.065L83.2562 136.02L96.1438 141.227C96.2544 141.041 96.3113 140.823 96.3009 140.598L96.3005 140.592L95.0317 116.381L94.9299 114.438Z" fill="#3E1B55"/>
<path d="M120.767 123.753C120.767 122.818 121.525 122.06 122.46 122.06H177.867C178.802 122.06 179.56 122.818 179.56 123.753L179.56 139.965C179.56 140.9 178.802 141.658 177.867 141.658H122.46C121.525 141.658 120.767 140.9 120.767 139.965L120.767 123.753Z" fill="#3E1B55"/>
</svg>
