<svg width="169" height="82" viewBox="0 0 169 82" fill="none" xmlns="http://www.w3.org/2000/svg">
<path d="M0 51.053C0 39.7717 9.14525 30.6265 20.4265 30.6265V61.5735C20.4265 72.8548 11.2812 82 0 82H0L0 51.053Z" fill="#070112"/>
<path fill-rule="evenodd" clip-rule="evenodd" d="M0 19.759C0 8.84641 8.83598 0 19.7357 0H20.4594V4.91408e-06L61.3781 3.12393e-06V0.724504C61.3781 11.6371 52.5421 20.4835 41.6424 20.4835L20.4468 20.4835C9.15318 20.4903 0 29.6585 0 40.9671V20.4835V19.759V19.759Z" fill="#004B91"/>
<path fill-rule="evenodd" clip-rule="evenodd" d="M18.0965 30.6937C18.6371 30.6492 19.1837 30.6265 19.7357 30.6265H20.4594H40.9187V31.351C40.9187 42.2636 32.0827 51.11 21.183 51.11L20.4594 51.11C9.15997 51.11 0 60.2808 0 71.5936V51.11V50.3855C0 43.5652 3.45156 37.5519 8.70129 34.001C11.4258 32.1582 14.6345 30.9787 18.0965 30.6937Z" fill="#FF8A00"/>
<path d="M66.1653 30.8557C73.0095 30.8557 78.8742 33.3659 83.7595 38.3863C88.6684 43.4068 91.1228 49.4147 91.1228 56.41C91.1228 63.5243 88.6566 69.5678 83.7241 74.5407C78.7916 79.5136 72.7971 82 65.7405 82C58.7312 82 52.7485 79.5017 47.7924 74.505C42.8363 69.5084 40.3582 63.4767 40.3582 56.41C40.3582 49.2719 42.8481 43.2283 47.8278 38.2793C52.8311 33.3302 58.9436 30.8557 66.1653 30.8557ZM65.7405 45.2032C62.7905 45.2032 60.277 46.2977 58.2002 48.4867C56.1233 50.6757 55.0849 53.3168 55.0849 56.41C55.0849 59.5032 56.1233 62.1442 58.2002 64.3333C60.3006 66.5223 62.8141 67.6168 65.7405 67.6168C68.7142 67.6168 71.2276 66.5342 73.2809 64.3689C75.3577 62.1799 76.3961 59.5269 76.3961 56.41C76.3961 53.293 75.3577 50.6519 73.2809 48.4867C71.2276 46.2977 68.7142 45.2032 65.7405 45.2032Z" fill="#070112"/>
<path d="M96.9286 32.0691C104.866 32.0691 111.301 38.504 111.301 46.4418V61.014C111.301 63.2744 111.655 64.7853 112.363 65.5467C113.095 66.2843 114.523 66.6531 116.647 66.6531H117.39V80.7865H113.567C108.328 80.7865 104.245 79.2518 101.318 76.1825C98.3918 73.0893 96.9286 68.8064 96.9286 63.3339V32.0691Z" fill="#070112"/>
<path d="M136.648 46.0598V80.7865H122.275V32.0691H141.002C149.215 32.0691 155.647 33.9488 160.296 37.7082C165.818 42.2052 168.58 48.3083 168.58 56.0174C168.58 63.3934 166.22 69.4132 161.499 74.0767C156.779 78.7403 150.702 81.072 143.268 81.072C142.395 81.072 140.967 81.0245 138.985 80.9293V66.6174H141.286C149.664 66.6174 153.853 63.0841 153.853 56.0174C153.853 49.379 149.735 46.0598 141.498 46.0598H136.648Z" fill="#070112"/>
</svg>
