<svg width="338" height="338" viewBox="0 0 338 338" fill="none" xmlns="http://www.w3.org/2000/svg"><path fill-rule="evenodd" clip-rule="evenodd" d="M13.206 76.685c-.744-14.194-1.116-21.29 3.062-25.93 4.18-4.64 11.275-5.013 25.468-5.757l240.87-12.623c14.192-.744 21.288-1.116 25.93 3.062 4.64 4.178 5.01 11.275 5.755 25.47l10.25 195.578c.082 1.538.122 2.308-.128 3.014s-.766 1.278-1.797 2.423l-28.65 31.82c-1.03 1.144-1.546 1.716-2.222 2.04-.677.32-1.446.362-2.984.442L55.542 308.448c-14.193.744-21.29 1.115-25.93-3.063-4.64-4.178-5.012-11.275-5.756-25.468L13.207 76.685zm283.558-9.788c.554 10.574-7.57 19.595-18.142 20.15-10.574.553-19.595-7.57-20.15-18.143-.554-10.574 7.57-19.595 18.143-20.15 10.574-.553 19.595 7.57 20.15 18.143zm-77.133 23.24c10.575-.553 18.697-9.574 18.143-20.148-.554-10.575-9.575-18.697-20.15-18.143-10.573.554-18.695 9.575-18.14 20.15.553 10.573 9.574 18.695 20.148 18.14zm-40.848-17.056c.554 10.574-7.568 19.595-18.142 20.15-10.574.554-19.595-7.57-20.15-18.143-.553-10.574 7.57-19.595 18.143-20.15 10.574-.553 19.595 7.57 20.15 18.144z" fill="#000" fill-opacity=".25"/><path fill-rule="evenodd" clip-rule="evenodd" d="M13.058 73.862c-.744-14.193-1.116-21.29 3.062-25.93 4.18-4.64 11.275-5.013 25.47-5.756l240.867-12.624c14.193-.744 21.29-1.116 25.93 3.063 4.64 4.178 5.012 11.275 5.756 25.468l10.25 195.58c.08 1.538.12 2.307-.13 3.014-.25.706-.765 1.28-1.796 2.423l-28.65 31.82c-1.03 1.144-1.546 1.716-2.222 2.04-.677.322-1.446.362-2.984.443L55.396 305.625c-14.193.744-21.29 1.116-25.93-3.062-4.64-4.18-5.012-11.275-5.756-25.47L13.057 73.864zm283.558-9.787c.554 10.574-7.568 19.595-18.142 20.15-10.574.553-19.595-7.57-20.15-18.143-.553-10.574 7.57-19.595 18.143-20.15 10.574-.554 19.595 7.57 20.15 18.143zm-77.133 23.24c10.574-.554 18.696-9.575 18.142-20.15-.554-10.573-9.575-18.695-20.15-18.14-10.573.553-18.695 9.574-18.14 20.148.553 10.574 9.574 18.697 20.148 18.142zm-40.85-17.057c.555 10.574-7.567 19.595-18.14 20.15-10.575.553-19.596-7.57-20.15-18.143-.554-10.574 7.568-19.595 18.142-20.15 10.574-.553 19.595 7.57 20.15 18.143z" fill="#471784"/><path fill-rule="evenodd" clip-rule="evenodd" d="M290.785 293.238l-.334-6.366c-.743-14.193-1.114-21.29 3.064-25.93 4.178-4.64 11.275-5.013 25.468-5.756l5.476-.287.017.32c.052 1-.294 1.978-.963 2.72l-30.74 34.14c-.528.587-1.225.99-1.987 1.158z" fill="#ECEEF5"/><path fill-rule="evenodd" clip-rule="evenodd" d="M147.155 210.52c.038.732-.35 1.42-.997 1.764l-67.18 35.72c-1.84.977-4.12.28-5.098-1.558l-16.086-30.253c-.977-1.838-.28-4.12 1.56-5.097l82.838-44.046c1.217-.648 2.694.188 2.767 1.565l2.195 41.906z" fill="#FCFBFF"/><path fill-rule="evenodd" clip-rule="evenodd" d="M96.866 191.15l49.914 20.382.094.08c-.076.124-.166.238-.27.34L93.407 192.99l3.46-1.84z" fill="#000" fill-opacity=".25"/><path fill-rule="evenodd" clip-rule="evenodd" d="M144.866 166.853c-.038-.732-.496-1.374-1.175-1.65l-70.546-28.5c-1.93-.78-4.126.15-4.906 2.08l-12.835 31.77c-.78 1.93.152 4.126 2.082 4.906l39.146 15.815 28.745 11.613 21.518 8.694c.185-.31.28-.674.263-1.05v-.01l-2.12-40.425-.17-3.244z" fill="#FCFBFF"/><path d="M186.528 179.584c-.082-1.56 1.116-2.89 2.675-2.97l92.386-4.842c1.558-.082 2.888 1.115 2.97 2.674l1.416 27.032c.082 1.56-1.116 2.89-2.675 2.97l-92.385 4.843c-1.56.082-2.89-1.115-2.97-2.674l-1.417-27.032z" fill="#FCFBFF"/></svg>