<svg width="876" height="876" viewBox="0 0 876 876" fill="none" xmlns="http://www.w3.org/2000/svg">
<path fill-rule="evenodd" clip-rule="evenodd" d="M753.311 188.894C753.268 223.411 725.251 251.359 690.733 251.316C667.339 251.286 646.963 238.408 636.273 219.364C625.536 238.381 605.128 251.209 581.734 251.179C558.339 251.15 537.963 238.271 527.273 219.228C516.536 238.245 496.128 251.072 472.734 251.043C438.216 251 410.269 222.983 410.312 188.465C410.355 153.947 438.372 126 472.89 126.043C496.284 126.073 516.66 138.951 527.35 157.995C538.087 138.978 558.495 126.15 581.89 126.179C605.284 126.209 625.66 139.087 636.35 158.131C647.087 139.114 667.495 126.286 690.889 126.316C725.407 126.359 753.354 154.376 753.311 188.894ZM690.765 226.316C711.475 226.341 728.285 209.573 728.311 188.862C728.337 168.152 711.569 151.341 690.858 151.316C670.148 151.29 653.337 168.058 653.311 188.769C653.286 209.479 670.054 226.29 690.765 226.316ZM581.765 226.179C602.475 226.205 619.286 209.437 619.312 188.726C619.337 168.016 602.569 151.205 581.858 151.179C561.148 151.154 544.337 167.922 544.312 188.633C544.286 209.343 561.054 226.154 581.765 226.179ZM510.312 188.59C510.286 209.301 493.475 226.069 472.765 226.043C452.054 226.017 435.286 209.207 435.312 188.496C435.337 167.786 452.148 151.017 472.858 151.043C493.569 151.069 510.337 167.879 510.312 188.59Z" fill="black" fill-opacity="0.25"/>
<path fill-rule="evenodd" clip-rule="evenodd" d="M88.5456 133.302C78 154.407 78 181.938 78 237V639C78 694.062 78 721.593 88.5456 742.698C98.2249 762.069 113.931 777.775 133.302 787.454C154.407 798 181.938 798 237 798H639C694.062 798 721.593 798 742.698 787.454C762.069 777.775 777.775 762.069 787.454 742.698C798 721.593 798 694.062 798 639V237C798 181.938 798 154.407 787.454 133.302C777.775 113.931 762.069 98.2249 742.698 88.5456C721.593 78 694.062 78 639 78H237C181.938 78 154.407 78 133.302 88.5456C113.931 98.2249 98.2249 113.931 88.5456 133.302ZM693.5 223C714.211 223 731 206.211 731 185.5C731 164.789 714.211 148 693.5 148C672.789 148 656 164.789 656 185.5C656 206.211 672.789 223 693.5 223ZM622 185.5C622 206.211 605.211 223 584.5 223C563.789 223 547 206.211 547 185.5C547 164.789 563.789 148 584.5 148C605.211 148 622 164.789 622 185.5ZM475.5 223C496.211 223 513 206.211 513 185.5C513 164.789 496.211 148 475.5 148C454.789 148 438 164.789 438 185.5C438 206.211 454.789 223 475.5 223Z" fill="#3E1B55"/>
<path fill-rule="evenodd" clip-rule="evenodd" d="M384.29 561.036C384.381 562.784 383.452 564.426 381.906 565.248L221.344 650.62C216.952 652.956 211.498 651.288 209.162 646.896L170.717 574.592C168.382 570.199 170.049 564.745 174.442 562.41L372.429 457.138C375.337 455.592 378.868 457.589 379.04 460.879L384.29 561.036Z" fill="#FBFBFF"/>
<path fill-rule="evenodd" clip-rule="evenodd" d="M264.098 514.739L383.395 563.452L383.62 563.646C383.438 563.939 383.221 564.212 382.975 564.459L255.831 519.135L264.098 514.739Z" fill="black" fill-opacity="0.25"/>
<path fill-rule="evenodd" clip-rule="evenodd" d="M378.821 456.668C378.729 454.92 377.633 453.384 376.01 452.728L207.404 384.607C202.791 382.743 197.541 384.971 195.678 389.584L165.001 465.511C163.138 470.123 165.366 475.373 169.979 477.236L263.538 515.037L332.236 542.793L383.665 563.571C384.106 562.828 384.333 561.959 384.292 561.062L384.29 561.036L379.227 464.423L378.821 456.668Z" fill="#FBFBFF"/>
<path d="M481.924 493.841C481.924 490.11 484.948 487.086 488.679 487.086H709.785C713.516 487.086 716.541 490.11 716.541 493.841L716.541 558.536C716.541 562.267 713.516 565.292 709.785 565.292H488.679C484.948 565.292 481.924 562.267 481.924 558.536L481.924 493.841Z" fill="#FBFBFF"/>
</svg>
