<svg height="682pt" viewBox="-23 -21 682 682.66669" width="682pt" xmlns="http://www.w3.org/2000/svg"><path fill="#FFF" d="M544.387 93.008C484.512 33.063 404.883.035 320.05 0 145.247 0 2.98 142.262 2.91 317.113c-.023 55.895 14.578 110.457 42.332 158.55L.25 640l168.12-44.102c46.325 25.27 98.478 38.586 151.552 38.602h.133c174.785 0 317.066-142.273 317.132-317.133.036-84.742-32.92-164.418-92.8-224.36zM320.05 580.94h-.11c-47.295-.018-93.682-12.73-134.16-36.74l-9.62-5.716-99.765 26.172 26.628-97.27-6.27-9.972c-26.386-41.97-40.32-90.476-40.296-140.28.055-145.333 118.305-263.57 263.7-263.57 70.406.022 136.59 27.475 186.355 77.3s77.156 116.05 77.133 186.484C583.582 462.69 465.34 580.94 320.05 580.94zm144.587-197.417c-7.922-3.968-46.883-23.132-54.15-25.78-7.257-2.645-12.546-3.962-17.823 3.968-5.285 7.93-20.47 25.782-25.094 31.067-4.625 5.29-9.242 5.953-17.168 1.985-7.925-3.965-33.457-12.336-63.726-39.332-23.555-21.012-39.457-46.96-44.082-54.89-4.617-7.938-.04-11.813 3.476-16.173 8.578-10.652 17.168-21.82 19.81-27.105 2.643-5.29 1.32-9.918-.665-13.883-1.977-3.966-17.824-42.97-24.426-58.84-6.438-15.446-12.966-13.36-17.833-13.602-4.617-.23-9.902-.278-15.187-.278-5.282 0-13.868 1.98-21.133 9.918-7.262 7.934-27.73 27.102-27.73 66.106s28.394 76.683 32.355 81.972c3.96 5.29 55.88 85.328 135.367 119.65 18.905 8.17 33.663 13.042 45.175 16.694 18.984 6.03 36.254 5.18 49.91 3.14 15.226-2.277 46.88-19.17 53.488-37.68 6.602-18.51 6.602-34.374 4.617-37.683-1.976-3.304-7.26-5.285-15.183-9.254zm0 0" fill-rule="evenodd"/></svg>